<mxfile host="app.diagrams.net" agent="Mozilla/5.0 (Macintosh; Intel Mac OS X 10_15_7) AppleWebKit/605.1.15 (KHTML, like Gecko) Version/18.0.1 Safari/605.1.15" version="24.7.17">
  <diagram id="C5RBs43oDa-KdzZeNtuy" name="Shared Ingest">
    <mxGraphModel dx="1053" dy="667" grid="1" gridSize="10" guides="1" tooltips="1" connect="1" arrows="1" fold="1" page="1" pageScale="1" pageWidth="1100" pageHeight="850" math="0" shadow="0">
      <root>
        <mxCell id="WIyWlLk6GJQsqaUBKTNV-0" />
        <mxCell id="WIyWlLk6GJQsqaUBKTNV-1" parent="WIyWlLk6GJQsqaUBKTNV-0" />
        <mxCell id="TwSKYaZt9HbKBkZTXK4D-0" value="&lt;b style=&quot;border-color: var(--border-color); font-family: Calibri, sans-serif; font-size: 14.6667px; text-align: start; background-color: rgb(255, 255, 204);&quot;&gt;Get metadata&lt;/b&gt;" style="swimlane;whiteSpace=wrap;html=1;labelBackgroundColor=default;" parent="WIyWlLk6GJQsqaUBKTNV-1" vertex="1">
          <mxGeometry x="60" y="90" width="170" height="250" as="geometry" />
        </mxCell>
        <mxCell id="TwSKYaZt9HbKBkZTXK4D-1" value="&lt;p style=&quot;margin: 0cm; line-height: normal; font-size: 11pt; font-family: Calibri, sans-serif;&quot; class=&quot;MsoNormal&quot;&gt;get_meta(&lt;/p&gt;&lt;p style=&quot;margin: 0cm 0cm 0cm 9pt; line-height: normal; font-size: 11pt; font-family: Calibri, sans-serif;&quot; class=&quot;MsoNormal&quot;&gt;&lt;span lang=&quot;EN-US&quot;&gt;sheet,&lt;/span&gt;&lt;/p&gt;&lt;p style=&quot;margin: 0cm 0cm 0cm 9pt; line-height: normal; font-size: 11pt; font-family: Calibri, sans-serif;&quot; class=&quot;MsoNormal&quot;&gt;&lt;span lang=&quot;EN-US&quot;&gt;skiprows&lt;/span&gt;&lt;/p&gt;&lt;p style=&quot;margin: 0cm; line-height: normal; font-size: 11pt; font-family: Calibri, sans-serif;&quot; class=&quot;MsoNormal&quot;&gt;&lt;span lang=&quot;EN-US&quot;&gt;)&lt;/span&gt;&lt;/p&gt;&lt;p style=&quot;margin: 0cm; line-height: normal; font-size: 11pt; font-family: Calibri, sans-serif;&quot; class=&quot;MsoNormal&quot;&gt;&lt;span lang=&quot;EN-US&quot;&gt;parse_meta(&lt;/span&gt;&lt;/p&gt;&lt;p style=&quot;margin: 0cm 0cm 0cm 9pt; line-height: normal; font-size: 11pt; font-family: Calibri, sans-serif;&quot; class=&quot;MsoNormal&quot;&gt;&lt;span lang=&quot;EN-US&quot;&gt;flavors=[&#39;etl&#39;],&lt;/span&gt;&lt;/p&gt;&lt;p style=&quot;margin: 0cm 0cm 0cm 9pt; line-height: normal; font-size: 11pt; font-family: Calibri, sans-serif;&quot; class=&quot;MsoNormal&quot;&gt;&lt;span lang=&quot;EN-US&quot;&gt;collection=None,&lt;/span&gt;&lt;/p&gt;&lt;p style=&quot;margin: 0cm 0cm 0cm 9pt; line-height: normal; font-size: 11pt; font-family: Calibri, sans-serif;&quot; class=&quot;MsoNormal&quot;&gt;&lt;span lang=&quot;EN-US&quot;&gt;table_name=None,&lt;/span&gt;&lt;/p&gt;&lt;p style=&quot;margin: 0cm 0cm 0cm 9pt; line-height: normal; font-size: 11pt; font-family: Calibri, sans-serif;&quot; class=&quot;MsoNormal&quot;&gt;&lt;span lang=&quot;EN-US&quot;&gt;meta={},&lt;/span&gt;&lt;/p&gt;&lt;p style=&quot;margin: 0cm 0cm 0cm 9pt; line-height: normal; font-size: 11pt; font-family: Calibri, sans-serif;&quot; class=&quot;MsoNormal&quot;&gt;&lt;span lang=&quot;EN-US&quot;&gt;fields={}&lt;/span&gt;&lt;/p&gt;&lt;p style=&quot;margin: 0cm; line-height: normal; font-size: 11pt; font-family: Calibri, sans-serif;&quot; class=&quot;MsoNormal&quot;&gt;&lt;span lang=&quot;EN-US&quot;&gt;)&lt;/span&gt;&lt;/p&gt;" style="text;html=1;align=left;verticalAlign=middle;resizable=0;points=[];autosize=1;strokeColor=none;fillColor=none;horizontal=1;labelPosition=center;verticalLabelPosition=middle;" parent="TwSKYaZt9HbKBkZTXK4D-0" vertex="1">
          <mxGeometry x="20" y="35" width="150" height="210" as="geometry" />
        </mxCell>
        <mxCell id="TwSKYaZt9HbKBkZTXK4D-30" style="edgeStyle=orthogonalEdgeStyle;rounded=0;orthogonalLoop=1;jettySize=auto;html=1;exitX=0.5;exitY=1;exitDx=0;exitDy=0;entryX=0.5;entryY=1;entryDx=0;entryDy=0;" parent="WIyWlLk6GJQsqaUBKTNV-1" source="TwSKYaZt9HbKBkZTXK4D-3" target="TwSKYaZt9HbKBkZTXK4D-11" edge="1">
          <mxGeometry relative="1" as="geometry" />
        </mxCell>
        <mxCell id="TwSKYaZt9HbKBkZTXK4D-3" value="&lt;b style=&quot;border-color: var(--border-color); font-family: Calibri, sans-serif; font-size: 14.6667px; text-align: start;&quot;&gt;variables&lt;/b&gt;" style="swimlane;whiteSpace=wrap;html=1;" parent="WIyWlLk6GJQsqaUBKTNV-1" vertex="1">
          <mxGeometry x="60" y="370" width="190" height="290" as="geometry" />
        </mxCell>
        <mxCell id="TwSKYaZt9HbKBkZTXK4D-4" value="&lt;p style=&quot;margin: 0cm; line-height: normal; font-size: 11pt; font-family: Calibri, sans-serif;&quot; class=&quot;MsoNormal&quot;&gt;meta = get_meta(&lt;/p&gt;&lt;p style=&quot;margin: 0cm 0cm 0cm 9pt; line-height: normal; font-size: 11pt; font-family: Calibri, sans-serif;&quot; class=&quot;MsoNormal&quot;&gt;&lt;span lang=&quot;EN-US&quot;&gt;&#39;Metadata&#39;,&lt;/span&gt;&lt;/p&gt;&lt;p style=&quot;margin: 0cm 0cm 0cm 9pt; line-height: normal; font-size: 11pt; font-family: Calibri, sans-serif;&quot; class=&quot;MsoNormal&quot;&gt;&lt;span lang=&quot;EN-US&quot;&gt;1&lt;/span&gt;&lt;/p&gt;&lt;p style=&quot;margin: 0cm; line-height: normal; font-size: 11pt; font-family: Calibri, sans-serif;&quot; class=&quot;MsoNormal&quot;&gt;&lt;span lang=&quot;EN-US&quot;&gt;)&lt;/span&gt;&lt;/p&gt;&lt;p style=&quot;margin: 0cm; line-height: normal; font-size: 11pt; font-family: Calibri, sans-serif;&quot; class=&quot;MsoNormal&quot;&gt;&lt;span lang=&quot;EN-US&quot;&gt;fields = get_meta(&lt;/span&gt;&lt;/p&gt;&lt;p style=&quot;margin: 0cm 0cm 0cm 9pt; line-height: normal; font-size: 11pt; font-family: Calibri, sans-serif;&quot; class=&quot;MsoNormal&quot;&gt;&lt;span lang=&quot;EN-US&quot;&gt;&#39;MetadataFields&#39;,&lt;/span&gt;&lt;/p&gt;&lt;p style=&quot;margin: 0cm 0cm 0cm 9pt; line-height: normal; font-size: 11pt; font-family: Calibri, sans-serif;&quot; class=&quot;MsoNormal&quot;&gt;&lt;span lang=&quot;EN-US&quot;&gt;2&lt;/span&gt;&lt;/p&gt;&lt;p style=&quot;margin: 0cm; line-height: normal; font-size: 11pt; font-family: Calibri, sans-serif;&quot; class=&quot;MsoNormal&quot;&gt;&lt;span lang=&quot;EN-US&quot;&gt;)&lt;/span&gt;&lt;/p&gt;&lt;p style=&quot;margin: 0cm; line-height: normal; font-size: 11pt; font-family: Calibri, sans-serif;&quot; class=&quot;MsoNormal&quot;&gt;&lt;span style=&quot;background-color: rgb(255, 244, 94);&quot; lang=&quot;EN-US&quot;&gt;collections = (sheet 3)&lt;/span&gt;&lt;/p&gt;&lt;p style=&quot;margin: 0cm; line-height: normal; font-size: 11pt; font-family: Calibri, sans-serif;&quot; class=&quot;MsoNormal&quot;&gt;&lt;span lang=&quot;EN-US&quot;&gt;layer = parse_meta(&lt;/span&gt;&lt;/p&gt;&lt;p style=&quot;margin: 0cm 0cm 0cm 9pt; line-height: normal; font-size: 11pt; font-family: Calibri, sans-serif;&quot; class=&quot;MsoNormal&quot;&gt;&lt;span lang=&quot;EN-US&quot;&gt;‘etl’&lt;/span&gt;&lt;/p&gt;&lt;p style=&quot;margin: 0cm 0cm 0cm 9pt; line-height: normal; font-size: 11pt; font-family: Calibri, sans-serif;&quot; class=&quot;MsoNormal&quot;&gt;&lt;span lang=&quot;EN-US&quot;&gt;table_name =&amp;nbsp;&lt;/span&gt;&lt;/p&gt;&lt;p style=&quot;margin: 0cm 0cm 0cm 9pt; line-height: normal; font-size: 11pt; font-family: Calibri, sans-serif;&quot; class=&quot;MsoNormal&quot;&gt;&lt;span lang=&quot;EN-US&quot;&gt;‘some_table’&lt;/span&gt;&lt;/p&gt;&lt;p style=&quot;margin: 0cm; line-height: normal; font-size: 11pt; font-family: Calibri, sans-serif;&quot; class=&quot;MsoNormal&quot;&gt;&lt;span lang=&quot;EN-US&quot;&gt;)&lt;/span&gt;&lt;/p&gt;" style="text;html=1;align=left;verticalAlign=middle;resizable=0;points=[];autosize=1;strokeColor=none;fillColor=none;" parent="TwSKYaZt9HbKBkZTXK4D-3" vertex="1">
          <mxGeometry x="20" y="40" width="170" height="240" as="geometry" />
        </mxCell>
        <mxCell id="TwSKYaZt9HbKBkZTXK4D-6" value="&lt;b style=&quot;border-color: var(--border-color); font-family: Calibri, sans-serif; font-size: 14.6667px; text-align: start; background-color: rgb(255, 255, 204);&quot;&gt;Spin up PostGIS pod&lt;/b&gt;" style="swimlane;whiteSpace=wrap;html=1;" parent="WIyWlLk6GJQsqaUBKTNV-1" vertex="1">
          <mxGeometry x="260" y="90" width="170" height="250" as="geometry" />
        </mxCell>
        <mxCell id="TwSKYaZt9HbKBkZTXK4D-7" value="&lt;p style=&quot;margin: 0cm; line-height: normal; font-size: 11pt; font-family: Calibri, sans-serif;&quot; class=&quot;MsoNormal&quot;&gt;spin_up_pod(&lt;/p&gt;&lt;p style=&quot;margin: 0cm 0cm 0cm 9pt; line-height: normal; font-size: 11pt; font-family: Calibri, sans-serif;&quot; class=&quot;MsoNormal&quot;&gt;&lt;span lang=&quot;EN-US&quot;&gt;api,&lt;/span&gt;&lt;/p&gt;&lt;p style=&quot;margin: 0cm 0cm 0cm 9pt; line-height: normal; font-size: 11pt; font-family: Calibri, sans-serif;&quot; class=&quot;MsoNormal&quot;&gt;&lt;span lang=&quot;EN-US&quot;&gt;pg,&lt;/span&gt;&lt;/p&gt;&lt;p style=&quot;margin: 0cm 0cm 0cm 9pt; line-height: normal; font-size: 11pt; font-family: Calibri, sans-serif;&quot; class=&quot;MsoNormal&quot;&gt;&lt;span lang=&quot;EN-US&quot;&gt;pod_name=None,&lt;/span&gt;&lt;/p&gt;&lt;p style=&quot;margin: 0cm 0cm 0cm 9pt; line-height: normal; font-size: 11pt; font-family: Calibri, sans-serif;&quot; class=&quot;MsoNormal&quot;&gt;&lt;span lang=&quot;EN-US&quot;&gt;indent=&#39;&#39;&lt;/span&gt;&lt;/p&gt;&lt;p style=&quot;margin: 0cm; line-height: normal; font-size: 11pt; font-family: Calibri, sans-serif;&quot; class=&quot;MsoNormal&quot;&gt;&lt;span lang=&quot;EN-US&quot;&gt;)&lt;/span&gt;&lt;/p&gt;&lt;p style=&quot;margin: 0cm; line-height: normal; font-size: 11pt; font-family: Calibri, sans-serif;&quot; class=&quot;MsoNormal&quot;&gt;&lt;span lang=&quot;EN-US&quot;&gt;get_pods(&lt;/span&gt;&lt;/p&gt;&lt;p style=&quot;margin: 0cm 0cm 0cm 9pt; line-height: normal; font-size: 11pt; font-family: Calibri, sans-serif;&quot; class=&quot;MsoNormal&quot;&gt;&lt;span lang=&quot;EN-US&quot;&gt;api,&lt;/span&gt;&lt;/p&gt;&lt;p style=&quot;margin: 0cm 0cm 0cm 9pt; line-height: normal; font-size: 11pt; font-family: Calibri, sans-serif;&quot; class=&quot;MsoNormal&quot;&gt;&lt;span lang=&quot;EN-US&quot;&gt;pg&lt;/span&gt;&lt;/p&gt;&lt;p style=&quot;margin: 0cm; line-height: normal; font-size: 11pt; font-family: Calibri, sans-serif;&quot; class=&quot;MsoNormal&quot;&gt;&lt;span lang=&quot;EN-US&quot;&gt;)&lt;/span&gt;&lt;/p&gt;" style="text;html=1;align=left;verticalAlign=middle;resizable=0;points=[];autosize=1;strokeColor=none;fillColor=none;" parent="TwSKYaZt9HbKBkZTXK4D-6" vertex="1">
          <mxGeometry x="20" y="35" width="140" height="190" as="geometry" />
        </mxCell>
        <mxCell id="TwSKYaZt9HbKBkZTXK4D-31" style="edgeStyle=orthogonalEdgeStyle;rounded=0;orthogonalLoop=1;jettySize=auto;html=1;exitX=1;exitY=0.5;exitDx=0;exitDy=0;entryX=0.5;entryY=1;entryDx=0;entryDy=0;" parent="WIyWlLk6GJQsqaUBKTNV-1" source="TwSKYaZt9HbKBkZTXK4D-8" target="TwSKYaZt9HbKBkZTXK4D-11" edge="1">
          <mxGeometry relative="1" as="geometry">
            <mxPoint x="550" y="340" as="targetPoint" />
          </mxGeometry>
        </mxCell>
        <mxCell id="TwSKYaZt9HbKBkZTXK4D-8" value="&lt;b style=&quot;border-color: var(--border-color); font-family: Calibri, sans-serif; font-size: 14.6667px; text-align: start;&quot;&gt;variables&lt;/b&gt;" style="swimlane;whiteSpace=wrap;html=1;" parent="WIyWlLk6GJQsqaUBKTNV-1" vertex="1">
          <mxGeometry x="260" y="370" width="170" height="250" as="geometry" />
        </mxCell>
        <mxCell id="TwSKYaZt9HbKBkZTXK4D-9" value="&lt;p style=&quot;margin: 0cm; line-height: normal; font-size: 11pt; font-family: Calibri, sans-serif;&quot; class=&quot;MsoNormal&quot;&gt;api = api_config()&lt;/p&gt;&lt;p style=&quot;margin: 0cm; line-height: normal; font-size: 11pt; font-family: Calibri, sans-serif;&quot; class=&quot;MsoNormal&quot;&gt;&lt;span lang=&quot;EN-US&quot;&gt;pg = get_env()&lt;/span&gt;&lt;/p&gt;&lt;p style=&quot;margin: 0cm; line-height: normal; font-size: 11pt; font-family: Calibri, sans-serif;&quot; class=&quot;MsoNormal&quot;&gt;&lt;span lang=&quot;EN-US&quot;&gt;pod, instance =&amp;nbsp;&lt;/span&gt;&lt;/p&gt;&lt;p style=&quot;margin: 0cm; line-height: normal; font-size: 11pt; font-family: Calibri, sans-serif;&quot; class=&quot;MsoNormal&quot;&gt;&lt;span lang=&quot;EN-US&quot;&gt;spin_up_pod(&lt;/span&gt;&lt;/p&gt;&lt;p style=&quot;margin: 0cm 0cm 0cm 9pt; line-height: normal; font-size: 11pt; font-family: Calibri, sans-serif;&quot; class=&quot;MsoNormal&quot;&gt;&lt;span lang=&quot;EN-US&quot;&gt;api,&lt;/span&gt;&lt;/p&gt;&lt;p style=&quot;margin: 0cm 0cm 0cm 9pt; line-height: normal; font-size: 11pt; font-family: Calibri, sans-serif;&quot; class=&quot;MsoNormal&quot;&gt;&lt;span lang=&quot;EN-US&quot;&gt;pg&lt;/span&gt;&lt;/p&gt;&lt;p style=&quot;margin: 0cm; line-height: normal; font-size: 11pt; font-family: Calibri, sans-serif;&quot; class=&quot;MsoNormal&quot;&gt;&lt;span lang=&quot;EN-US&quot;&gt;)&lt;/span&gt;&lt;/p&gt;&lt;p style=&quot;margin: 0cm; line-height: normal; font-size: 11pt; font-family: Calibri, sans-serif;&quot; class=&quot;MsoNormal&quot;&gt;&lt;span lang=&quot;EN-US&quot;&gt;pods = get_pods(&lt;/span&gt;&lt;/p&gt;&lt;p style=&quot;margin: 0cm 0cm 0cm 9pt; line-height: normal; font-size: 11pt; font-family: Calibri, sans-serif;&quot; class=&quot;MsoNormal&quot;&gt;&lt;span lang=&quot;EN-US&quot;&gt;api,&lt;/span&gt;&lt;/p&gt;&lt;p style=&quot;margin: 0cm 0cm 0cm 9pt; line-height: normal; font-size: 11pt; font-family: Calibri, sans-serif;&quot; class=&quot;MsoNormal&quot;&gt;&lt;span lang=&quot;EN-US&quot;&gt;pg&lt;/span&gt;&lt;/p&gt;&lt;p style=&quot;margin: 0cm; line-height: normal; font-size: 11pt; font-family: Calibri, sans-serif;&quot; class=&quot;MsoNormal&quot;&gt;&lt;span lang=&quot;EN-US&quot;&gt;)&lt;/span&gt;&lt;/p&gt;" style="text;html=1;align=left;verticalAlign=middle;resizable=0;points=[];autosize=1;strokeColor=none;fillColor=none;" parent="TwSKYaZt9HbKBkZTXK4D-8" vertex="1">
          <mxGeometry x="20" y="35" width="130" height="210" as="geometry" />
        </mxCell>
        <mxCell id="TwSKYaZt9HbKBkZTXK4D-11" value="&lt;b style=&quot;border-color: var(--border-color); font-family: Calibri, sans-serif; font-size: 14.6667px; text-align: start;&quot;&gt;&lt;span style=&quot;background-color: rgb(255, 255, 204);&quot;&gt;Start etl&lt;/span&gt;&lt;br&gt;&lt;/b&gt;" style="swimlane;whiteSpace=wrap;html=1;" parent="WIyWlLk6GJQsqaUBKTNV-1" vertex="1">
          <mxGeometry x="460" y="90" width="170" height="250" as="geometry" />
        </mxCell>
        <mxCell id="TwSKYaZt9HbKBkZTXK4D-12" value="&lt;p style=&quot;margin: 0cm; line-height: normal; font-size: 11pt; font-family: Calibri, sans-serif;&quot; class=&quot;MsoNormal&quot;&gt;etl(&lt;/p&gt;&lt;p style=&quot;margin: 0cm 0cm 0cm 9pt; line-height: normal; font-size: 11pt; font-family: Calibri, sans-serif;&quot; class=&quot;MsoNormal&quot;&gt;&lt;span lang=&quot;EN-US&quot;&gt;pod,&lt;/span&gt;&lt;/p&gt;&lt;p style=&quot;margin: 0cm 0cm 0cm 9pt; line-height: normal; font-size: 11pt; font-family: Calibri, sans-serif;&quot; class=&quot;MsoNormal&quot;&gt;&lt;span lang=&quot;EN-US&quot;&gt;pods,&lt;/span&gt;&lt;/p&gt;&lt;p style=&quot;margin: 0cm 0cm 0cm 9pt; line-height: normal; font-size: 11pt; font-family: Calibri, sans-serif;&quot; class=&quot;MsoNormal&quot;&gt;&lt;span lang=&quot;EN-US&quot;&gt;layer,&lt;/span&gt;&lt;/p&gt;&lt;p style=&quot;margin: 0cm 0cm 0cm 9pt; line-height: normal; font-size: 11pt; font-family: Calibri, sans-serif;&quot; class=&quot;MsoNormal&quot;&gt;&lt;span lang=&quot;EN-US&quot;&gt;meta,&lt;/span&gt;&lt;/p&gt;&lt;p style=&quot;margin: 0cm 0cm 0cm 9pt; line-height: normal; font-size: 11pt; font-family: Calibri, sans-serif;&quot; class=&quot;MsoNormal&quot;&gt;&lt;span lang=&quot;EN-US&quot;&gt;fields,&lt;/span&gt;&lt;/p&gt;&lt;p style=&quot;margin: 0cm 0cm 0cm 9pt; line-height: normal; font-size: 11pt; font-family: Calibri, sans-serif;&quot; class=&quot;MsoNormal&quot;&gt;&lt;span lang=&quot;EN-US&quot;&gt;api,&lt;/span&gt;&lt;/p&gt;&lt;p style=&quot;margin: 0cm 0cm 0cm 9pt; line-height: normal; font-size: 11pt; font-family: Calibri, sans-serif;&quot; class=&quot;MsoNormal&quot;&gt;&lt;span lang=&quot;EN-US&quot;&gt;pg,&lt;/span&gt;&lt;/p&gt;&lt;p style=&quot;margin: 0cm 0cm 0cm 9pt; line-height: normal; font-size: 11pt; font-family: Calibri, sans-serif;&quot; class=&quot;MsoNormal&quot;&gt;&lt;span lang=&quot;EN-US&quot;&gt;load=True&lt;/span&gt;&lt;/p&gt;&lt;p style=&quot;margin: 0cm 0cm 0cm 9pt; line-height: normal; font-size: 11pt; font-family: Calibri, sans-serif;&quot; class=&quot;MsoNormal&quot;&gt;&lt;span lang=&quot;EN-US&quot;&gt;render=False&lt;/span&gt;&lt;/p&gt;&lt;p style=&quot;margin: 0cm 0cm 0cm 9pt; line-height: normal; font-size: 11pt; font-family: Calibri, sans-serif;&quot; class=&quot;MsoNormal&quot;&gt;&lt;span lang=&quot;EN-US&quot;&gt;derivative=False&lt;/span&gt;&lt;/p&gt;&lt;p style=&quot;margin: 0cm; line-height: normal; font-size: 11pt; font-family: Calibri, sans-serif;&quot; class=&quot;MsoNormal&quot;&gt;&lt;span lang=&quot;EN-US&quot;&gt;)&lt;/span&gt;&lt;/p&gt;" style="text;html=1;align=left;verticalAlign=middle;resizable=0;points=[];autosize=1;strokeColor=none;fillColor=none;" parent="TwSKYaZt9HbKBkZTXK4D-11" vertex="1">
          <mxGeometry x="20" y="25" width="140" height="210" as="geometry" />
        </mxCell>
        <mxCell id="TwSKYaZt9HbKBkZTXK4D-15" value="&lt;b style=&quot;border-color: var(--border-color); font-family: Calibri, sans-serif; font-size: 14.6667px; text-align: start;&quot;&gt;&lt;span style=&quot;&quot;&gt;Check/prepare storage&lt;/span&gt;&lt;br&gt;&lt;/b&gt;" style="swimlane;whiteSpace=wrap;html=1;labelBackgroundColor=#ffffcc;" parent="WIyWlLk6GJQsqaUBKTNV-1" vertex="1">
          <mxGeometry x="670" y="90" width="170" height="270" as="geometry">
            <mxRectangle x="670" y="90" width="180" height="30" as="alternateBounds" />
          </mxGeometry>
        </mxCell>
        <mxCell id="TwSKYaZt9HbKBkZTXK4D-16" value="&lt;p style=&quot;margin: 0cm; line-height: normal; font-size: 11pt; font-family: Calibri, sans-serif;&quot; class=&quot;MsoNormal&quot;&gt;&lt;span style=&quot;font-size: 11pt;&quot;&gt;getwd(&lt;/span&gt;&lt;br&gt;&lt;/p&gt;&lt;p style=&quot;margin: 0cm 0cm 0cm 9pt; line-height: normal; font-size: 11pt; font-family: Calibri, sans-serif;&quot; class=&quot;MsoNormal&quot;&gt;&lt;span lang=&quot;EN-US&quot;&gt;opts&lt;/span&gt;&lt;/p&gt;&lt;p style=&quot;margin: 0cm; line-height: normal; font-size: 11pt; font-family: Calibri, sans-serif;&quot; class=&quot;MsoNormal&quot;&gt;&lt;span lang=&quot;EN-US&quot;&gt;)&lt;/span&gt;&lt;/p&gt;&lt;p style=&quot;border-color: var(--border-color); margin: 0cm; line-height: normal; font-size: 11pt; font-family: Calibri, sans-serif;&quot; class=&quot;MsoNormal&quot;&gt;mkdir(&lt;/p&gt;&lt;p style=&quot;border-color: var(--border-color); margin: 0cm 0cm 0cm 9pt; line-height: normal; font-size: 11pt; font-family: Calibri, sans-serif;&quot; class=&quot;MsoNormal&quot;&gt;scripts,&lt;/p&gt;&lt;p style=&quot;border-color: var(--border-color); margin: 0cm 0cm 0cm 9pt; line-height: normal; font-size: 11pt; font-family: Calibri, sans-serif;&quot; class=&quot;MsoNormal&quot;&gt;&lt;span style=&quot;border-color: var(--border-color);&quot; lang=&quot;EN-US&quot;&gt;opts,&lt;/span&gt;&lt;/p&gt;&lt;p style=&quot;border-color: var(--border-color); margin: 0cm 0cm 0cm 9pt; line-height: normal; font-size: 11pt; font-family: Calibri, sans-serif;&quot; class=&quot;MsoNormal&quot;&gt;&lt;span style=&quot;border-color: var(--border-color);&quot; lang=&quot;EN-US&quot;&gt;dependent=False&lt;/span&gt;&lt;/p&gt;&lt;p style=&quot;margin: 0cm; line-height: normal; font-size: 11pt; font-family: Calibri, sans-serif;&quot; class=&quot;MsoNormal&quot;&gt;&lt;span lang=&quot;EN-US&quot;&gt;&lt;/span&gt;&lt;/p&gt;&lt;p style=&quot;border-color: var(--border-color); margin: 0cm; line-height: normal; font-size: 11pt; font-family: Calibri, sans-serif;&quot; class=&quot;MsoNormal&quot;&gt;&lt;span style=&quot;border-color: var(--border-color);&quot; lang=&quot;EN-US&quot;&gt;)&lt;/span&gt;&lt;/p&gt;&lt;p style=&quot;border-color: var(--border-color); margin: 0cm; line-height: normal; font-size: 11pt; font-family: Calibri, sans-serif;&quot; class=&quot;MsoNormal&quot;&gt;get_podID_ondisk(&lt;/p&gt;&lt;p style=&quot;border-color: var(--border-color); margin: 0cm 0cm 0cm 9pt; line-height: normal; font-size: 11pt; font-family: Calibri, sans-serif;&quot; class=&quot;MsoNormal&quot;&gt;&lt;span style=&quot;border-color: var(--border-color);&quot; lang=&quot;EN-US&quot;&gt;path,&lt;/span&gt;&lt;/p&gt;&lt;p style=&quot;border-color: var(--border-color); margin: 0cm 0cm 0cm 9pt; line-height: normal; font-size: 11pt; font-family: Calibri, sans-serif;&quot; class=&quot;MsoNormal&quot;&gt;&lt;span style=&quot;border-color: var(--border-color);&quot; lang=&quot;EN-US&quot;&gt;pods&lt;/span&gt;&lt;/p&gt;&lt;p style=&quot;border-color: var(--border-color); margin: 0cm; line-height: normal; font-size: 11pt; font-family: Calibri, sans-serif;&quot; class=&quot;MsoNormal&quot;&gt;&lt;span style=&quot;border-color: var(--border-color);&quot; lang=&quot;EN-US&quot;&gt;&lt;/span&gt;&lt;/p&gt;&lt;p style=&quot;border-color: var(--border-color); margin: 0cm; line-height: normal; font-size: 11pt; font-family: Calibri, sans-serif;&quot; class=&quot;MsoNormal&quot;&gt;&lt;span style=&quot;border-color: var(--border-color);&quot; lang=&quot;EN-US&quot;&gt;)&lt;/span&gt;&lt;/p&gt;" style="text;html=1;align=left;verticalAlign=middle;resizable=0;points=[];autosize=1;strokeColor=none;fillColor=none;labelBackgroundColor=default;" parent="TwSKYaZt9HbKBkZTXK4D-15" vertex="1">
          <mxGeometry x="20" y="35" width="140" height="230" as="geometry" />
        </mxCell>
        <mxCell id="TwSKYaZt9HbKBkZTXK4D-29" style="edgeStyle=orthogonalEdgeStyle;rounded=0;orthogonalLoop=1;jettySize=auto;html=1;exitX=1;exitY=0.5;exitDx=0;exitDy=0;entryX=0.5;entryY=1;entryDx=0;entryDy=0;" parent="WIyWlLk6GJQsqaUBKTNV-1" source="TwSKYaZt9HbKBkZTXK4D-18" target="TwSKYaZt9HbKBkZTXK4D-20" edge="1">
          <mxGeometry relative="1" as="geometry" />
        </mxCell>
        <mxCell id="TwSKYaZt9HbKBkZTXK4D-18" value="&lt;b style=&quot;border-color: var(--border-color); font-family: Calibri, sans-serif; font-size: 14.6667px; text-align: start;&quot;&gt;variables&lt;/b&gt;" style="swimlane;whiteSpace=wrap;html=1;" parent="WIyWlLk6GJQsqaUBKTNV-1" vertex="1">
          <mxGeometry x="670" y="390" width="170" height="220" as="geometry" />
        </mxCell>
        <mxCell id="TwSKYaZt9HbKBkZTXK4D-19" value="&lt;p style=&quot;margin: 0cm; line-height: normal; font-size: 11pt; font-family: Calibri, sans-serif;&quot; class=&quot;MsoNormal&quot;&gt;opts = layer[&#39;etl&#39;]&lt;/p&gt;&lt;p style=&quot;margin: 0cm; line-height: normal; font-size: 11pt; font-family: Calibri, sans-serif;&quot; class=&quot;MsoNormal&quot;&gt;&lt;span lang=&quot;EN-US&quot;&gt;scripts = {&lt;/span&gt;&lt;/p&gt;&lt;p style=&quot;margin: 0cm 0cm 0cm 9pt; line-height: normal; font-size: 11pt; font-family: Calibri, sans-serif;&quot; class=&quot;MsoNormal&quot;&gt;&lt;span lang=&quot;EN-US&quot;&gt;ogr_template,&lt;/span&gt;&lt;/p&gt;&lt;p style=&quot;margin: 0cm 0cm 0cm 9pt; line-height: normal; font-size: 11pt; font-family: Calibri, sans-serif;&quot; class=&quot;MsoNormal&quot;&gt;&lt;span lang=&quot;EN-US&quot;&gt;postgis_template&lt;/span&gt;&lt;/p&gt;&lt;p style=&quot;margin: 0cm; line-height: normal; font-size: 11pt; font-family: Calibri, sans-serif;&quot; class=&quot;MsoNormal&quot;&gt;&lt;span lang=&quot;EN-US&quot;&gt;}&lt;/span&gt;&lt;/p&gt;&lt;p style=&quot;margin: 0cm; line-height: normal; font-size: 11pt; font-family: Calibri, sans-serif;&quot; class=&quot;MsoNormal&quot;&gt;&lt;span lang=&quot;EN-US&quot;&gt;path = mkdir(&lt;/span&gt;&lt;/p&gt;&lt;p style=&quot;margin: 0cm 0cm 0cm 9pt; line-height: normal; font-size: 11pt; font-family: Calibri, sans-serif;&quot; class=&quot;MsoNormal&quot;&gt;&lt;span lang=&quot;EN-US&quot;&gt;scripts&lt;/span&gt;&lt;/p&gt;&lt;p style=&quot;margin: 0cm 0cm 0cm 9pt; line-height: normal; font-size: 11pt; font-family: Calibri, sans-serif;&quot; class=&quot;MsoNormal&quot;&gt;&lt;span lang=&quot;EN-US&quot;&gt;opts&lt;/span&gt;&lt;/p&gt;&lt;p style=&quot;margin: 0cm; line-height: normal; font-size: 11pt; font-family: Calibri, sans-serif;&quot; class=&quot;MsoNormal&quot;&gt;&lt;span lang=&quot;EN-US&quot;&gt;)&lt;/span&gt;&lt;/p&gt;" style="text;html=1;align=left;verticalAlign=middle;resizable=0;points=[];autosize=1;strokeColor=none;fillColor=none;" parent="TwSKYaZt9HbKBkZTXK4D-18" vertex="1">
          <mxGeometry x="20" y="35" width="140" height="180" as="geometry" />
        </mxCell>
        <mxCell id="TwSKYaZt9HbKBkZTXK4D-20" value="&lt;b style=&quot;border-color: var(--border-color); font-family: Calibri, sans-serif; font-size: 14.6667px; text-align: start;&quot;&gt;&lt;span style=&quot;&quot;&gt;Download&lt;/span&gt;&lt;br&gt;&lt;/b&gt;" style="swimlane;whiteSpace=wrap;html=1;labelBackgroundColor=#FFFFCC;" parent="WIyWlLk6GJQsqaUBKTNV-1" vertex="1">
          <mxGeometry x="870" y="90" width="170" height="340" as="geometry" />
        </mxCell>
        <mxCell id="TwSKYaZt9HbKBkZTXK4D-21" value="&lt;p style=&quot;margin: 0cm; line-height: normal; font-size: 11pt; font-family: Calibri, sans-serif;&quot; class=&quot;MsoNormal&quot;&gt;wget(&lt;/p&gt;&lt;p style=&quot;margin: 0cm 0cm 0cm 9pt; line-height: normal; font-size: 11pt; font-family: Calibri, sans-serif;&quot; class=&quot;MsoNormal&quot;&gt;&lt;span lang=&quot;EN-US&quot;&gt;scripts,&lt;/span&gt;&lt;/p&gt;&lt;p style=&quot;margin: 0cm 0cm 0cm 9pt; line-height: normal; font-size: 11pt; font-family: Calibri, sans-serif;&quot; class=&quot;MsoNormal&quot;&gt;&lt;span lang=&quot;EN-US&quot;&gt;opts&lt;/span&gt;&lt;/p&gt;&lt;p style=&quot;margin: 0cm; line-height: normal; font-size: 11pt; font-family: Calibri, sans-serif;&quot; class=&quot;MsoNormal&quot;&gt;&lt;span lang=&quot;EN-US&quot;&gt;)&lt;/span&gt;&lt;/p&gt;&lt;p style=&quot;margin: 0cm; line-height: normal; font-size: 11pt; font-family: Calibri, sans-serif;&quot; class=&quot;MsoNormal&quot;&gt;&lt;span lang=&quot;EN-US&quot;&gt;curl(&lt;/span&gt;&lt;/p&gt;&lt;p style=&quot;margin: 0cm 0cm 0cm 9pt; line-height: normal; font-size: 11pt; font-family: Calibri, sans-serif;&quot; class=&quot;MsoNormal&quot;&gt;&lt;span lang=&quot;EN-US&quot;&gt;scripts,&lt;/span&gt;&lt;/p&gt;&lt;p style=&quot;margin: 0cm 0cm 0cm 9pt; line-height: normal; font-size: 11pt; font-family: Calibri, sans-serif;&quot; class=&quot;MsoNormal&quot;&gt;&lt;span lang=&quot;EN-US&quot;&gt;opts&lt;/span&gt;&lt;/p&gt;&lt;p style=&quot;margin: 0cm; line-height: normal; font-size: 11pt; font-family: Calibri, sans-serif;&quot; class=&quot;MsoNormal&quot;&gt;&lt;span lang=&quot;EN-US&quot;&gt;)&lt;/span&gt;&lt;/p&gt;&lt;p style=&quot;margin: 0cm; line-height: normal; font-size: 11pt; font-family: Calibri, sans-serif;&quot; class=&quot;MsoNormal&quot;&gt;&lt;span lang=&quot;EN-US&quot;&gt;esri_recursive_ogr(&lt;/span&gt;&lt;/p&gt;&lt;p style=&quot;margin: 0cm 0cm 0cm 9pt; line-height: normal; font-size: 11pt; font-family: Calibri, sans-serif;&quot; class=&quot;MsoNormal&quot;&gt;&lt;span lang=&quot;EN-US&quot;&gt;scripts,&lt;/span&gt;&lt;/p&gt;&lt;p style=&quot;margin: 0cm 0cm 0cm 9pt; line-height: normal; font-size: 11pt; font-family: Calibri, sans-serif;&quot; class=&quot;MsoNormal&quot;&gt;&lt;span lang=&quot;EN-US&quot;&gt;opts&lt;/span&gt;&lt;/p&gt;&lt;p style=&quot;margin: 0cm; line-height: normal; font-size: 11pt; font-family: Calibri, sans-serif;&quot; class=&quot;MsoNormal&quot;&gt;&lt;span lang=&quot;EN-US&quot;&gt;)&lt;/span&gt;&lt;/p&gt;&lt;p style=&quot;margin: 0cm; line-height: normal; font-size: 11pt; font-family: Calibri, sans-serif;&quot; class=&quot;MsoNormal&quot;&gt;&lt;span lang=&quot;EN-US&quot;&gt;unzip(&lt;/span&gt;&lt;/p&gt;&lt;p style=&quot;border-color: var(--border-color); margin: 0cm 0cm 0cm 9pt; line-height: normal; font-size: 11pt; font-family: Calibri, sans-serif;&quot; class=&quot;MsoNormal&quot;&gt;scripts,&lt;/p&gt;&lt;p style=&quot;border-color: var(--border-color); margin: 0cm 0cm 0cm 9pt; line-height: normal; font-size: 11pt; font-family: Calibri, sans-serif;&quot; class=&quot;MsoNormal&quot;&gt;&lt;span style=&quot;border-color: var(--border-color);&quot; lang=&quot;EN-US&quot;&gt;opts&lt;/span&gt;&lt;/p&gt;&lt;p style=&quot;margin: 0cm; line-height: normal; font-size: 11pt; font-family: Calibri, sans-serif;&quot; class=&quot;MsoNormal&quot;&gt;&lt;span lang=&quot;EN-US&quot;&gt;)&lt;/span&gt;&lt;/p&gt;" style="text;html=1;align=left;verticalAlign=middle;resizable=0;points=[];autosize=1;strokeColor=none;fillColor=none;" parent="TwSKYaZt9HbKBkZTXK4D-20" vertex="1">
          <mxGeometry x="20" y="35" width="140" height="300" as="geometry" />
        </mxCell>
        <mxCell id="TwSKYaZt9HbKBkZTXK4D-25" value="&lt;i&gt;&lt;br&gt;&lt;/i&gt;" style="text;html=1;align=center;verticalAlign=middle;resizable=0;points=[];autosize=1;strokeColor=none;fillColor=none;" parent="WIyWlLk6GJQsqaUBKTNV-1" vertex="1">
          <mxGeometry x="1040" y="525" width="20" height="30" as="geometry" />
        </mxCell>
        <mxCell id="TwSKYaZt9HbKBkZTXK4D-32" value="&lt;span style=&quot;background-color: rgb(255, 255, 204);&quot;&gt;GDSC Shared Ingest Processes&lt;/span&gt;" style="text;strokeColor=none;align=center;fillColor=none;html=1;verticalAlign=middle;whiteSpace=wrap;rounded=0;fontSize=18;" parent="WIyWlLk6GJQsqaUBKTNV-1" vertex="1">
          <mxGeometry x="410" y="30" width="360" height="30" as="geometry" />
        </mxCell>
        <mxCell id="9fGKxZIyTzMAZo619aZq-0" value="&lt;i style=&quot;border-color: var(--border-color);&quot;&gt;Get all metadata and field descriptions from BOX.&lt;/i&gt;" style="text;strokeColor=none;align=center;fillColor=none;html=1;verticalAlign=middle;whiteSpace=wrap;rounded=0;" parent="WIyWlLk6GJQsqaUBKTNV-1" vertex="1">
          <mxGeometry x="60" y="710" width="170" height="40" as="geometry" />
        </mxCell>
        <mxCell id="9fGKxZIyTzMAZo619aZq-1" value="&lt;i&gt;&lt;span style=&quot;border-color: var(--border-color);&quot;&gt;Connect to K8s control&amp;nbsp;&lt;/span&gt;&lt;span style=&quot;border-color: var(--border-color);&quot;&gt;plane,&amp;nbsp;&lt;/span&gt;assess running pods,&amp;nbsp;&lt;span style=&quot;&quot;&gt;and spin up a postGIS pod&amp;nbsp;&lt;/span&gt;&lt;span style=&quot;&quot;&gt;if not already running,&amp;nbsp;&lt;/span&gt;&lt;span style=&quot;&quot;&gt;otherwise exit.&lt;/span&gt;&lt;/i&gt;" style="text;strokeColor=none;align=center;fillColor=none;html=1;verticalAlign=middle;whiteSpace=wrap;rounded=0;" parent="WIyWlLk6GJQsqaUBKTNV-1" vertex="1">
          <mxGeometry x="260" y="710" width="170" height="80" as="geometry" />
        </mxCell>
        <mxCell id="9fGKxZIyTzMAZo619aZq-2" value="&lt;i style=&quot;border-color: var(--border-color);&quot;&gt;Pass all metadata and pod information to the etl function.&lt;/i&gt;" style="text;strokeColor=none;align=center;fillColor=none;html=1;verticalAlign=middle;whiteSpace=wrap;rounded=0;" parent="WIyWlLk6GJQsqaUBKTNV-1" vertex="1">
          <mxGeometry x="460" y="710" width="170" height="40" as="geometry" />
        </mxCell>
        <mxCell id="9fGKxZIyTzMAZo619aZq-3" value="&lt;i style=&quot;border-color: var(--border-color);&quot;&gt;Check to see if pod has&amp;nbsp;already run: note if yes or&amp;nbsp;create storage if no.&lt;br style=&quot;border-color: var(--border-color);&quot;&gt;&lt;br style=&quot;border-color: var(--border-color);&quot;&gt;All functions after this write&amp;nbsp;bash and SQL scripts to the&amp;nbsp;templates in the scripts&amp;nbsp;object.&lt;/i&gt;" style="text;strokeColor=none;align=center;fillColor=none;html=1;verticalAlign=middle;whiteSpace=wrap;rounded=0;" parent="WIyWlLk6GJQsqaUBKTNV-1" vertex="1">
          <mxGeometry x="670" y="640" width="170" height="130" as="geometry" />
        </mxCell>
        <mxCell id="9fGKxZIyTzMAZo619aZq-4" value="&lt;i style=&quot;border-color: var(--border-color);&quot;&gt;Write OGR bash script to&amp;nbsp;check update frequency and&amp;nbsp;download data from source&amp;nbsp;as needed. Unzip if needed.&lt;br style=&quot;border-color: var(--border-color);&quot;&gt;&lt;br style=&quot;border-color: var(--border-color);&quot;&gt;After this step the process&amp;nbsp;becomes dependent on&amp;nbsp;format and type of data.&lt;/i&gt;" style="text;strokeColor=none;align=center;fillColor=none;html=1;verticalAlign=middle;whiteSpace=wrap;rounded=0;" parent="WIyWlLk6GJQsqaUBKTNV-1" vertex="1">
          <mxGeometry x="870" y="640" width="170" height="150" as="geometry" />
        </mxCell>
        <mxCell id="9fGKxZIyTzMAZo619aZq-5" value="&lt;b style=&quot;border-color: var(--border-color); font-family: Calibri, sans-serif; font-size: 14.6667px; text-align: start;&quot;&gt;&lt;span style=&quot;background-color: rgb(222, 243, 255);&quot;&gt;Clean&lt;/span&gt;&lt;br&gt;&lt;/b&gt;" style="swimlane;whiteSpace=wrap;html=1;" parent="WIyWlLk6GJQsqaUBKTNV-1" vertex="1">
          <mxGeometry x="1370" y="90" width="170" height="215" as="geometry" />
        </mxCell>
        <mxCell id="9fGKxZIyTzMAZo619aZq-6" value="&lt;p style=&quot;border-color: var(--border-color); margin: 0cm; line-height: normal; font-size: 11pt; font-family: Calibri, sans-serif;&quot; class=&quot;MsoNormal&quot;&gt;sanitize_columns(&lt;/p&gt;&lt;p style=&quot;border-color: var(--border-color); margin: 0cm 0cm 0cm 9pt; line-height: normal; font-size: 11pt; font-family: Calibri, sans-serif;&quot; class=&quot;MsoNormal&quot;&gt;scripts,&lt;/p&gt;&lt;p style=&quot;border-color: var(--border-color); margin: 0cm 0cm 0cm 9pt; line-height: normal; font-size: 11pt; font-family: Calibri, sans-serif;&quot; class=&quot;MsoNormal&quot;&gt;&lt;span style=&quot;border-color: var(--border-color);&quot; lang=&quot;EN-US&quot;&gt;opts&lt;/span&gt;&lt;/p&gt;&lt;p style=&quot;border-color: var(--border-color); margin: 0cm; line-height: normal; font-size: 11pt; font-family: Calibri, sans-serif;&quot; class=&quot;MsoNormal&quot;&gt;&lt;span style=&quot;border-color: var(--border-color);&quot; lang=&quot;EN-US&quot;&gt;)&lt;/span&gt;&lt;/p&gt;&lt;p style=&quot;border-color: var(--border-color); margin: 0cm; line-height: normal; font-size: 11pt; font-family: Calibri, sans-serif;&quot; class=&quot;MsoNormal&quot;&gt;sanitize_headers(&lt;/p&gt;&lt;p style=&quot;border-color: var(--border-color); margin: 0cm 0cm 0cm 9pt; line-height: normal; font-size: 11pt; font-family: Calibri, sans-serif;&quot; class=&quot;MsoNormal&quot;&gt;scripts,&lt;/p&gt;&lt;p style=&quot;border-color: var(--border-color); margin: 0cm 0cm 0cm 9pt; line-height: normal; font-size: 11pt; font-family: Calibri, sans-serif;&quot; class=&quot;MsoNormal&quot;&gt;opts&lt;/p&gt;&lt;p style=&quot;border-color: var(--border-color); margin: 0cm; line-height: normal; font-size: 11pt; font-family: Calibri, sans-serif;&quot; class=&quot;MsoNormal&quot;&gt;&lt;span style=&quot;border-color: var(--border-color);&quot; lang=&quot;EN-US&quot;&gt;&lt;/span&gt;&lt;/p&gt;&lt;p style=&quot;border-color: var(--border-color); margin: 0cm; line-height: normal; font-size: 11pt; font-family: Calibri, sans-serif;&quot; class=&quot;MsoNormal&quot;&gt;&lt;span style=&quot;border-color: var(--border-color);&quot; lang=&quot;EN-US&quot;&gt;)&lt;/span&gt;&lt;/p&gt;&lt;p style=&quot;border-color: var(--border-color); margin: 0cm; line-height: normal; font-size: 11pt; font-family: Calibri, sans-serif;&quot; class=&quot;MsoNormal&quot;&gt;&lt;span style=&quot;border-color: var(--border-color);&quot; lang=&quot;EN-US&quot;&gt;&lt;br&gt;&lt;/span&gt;&lt;/p&gt;" style="text;html=1;align=left;verticalAlign=middle;resizable=0;points=[];autosize=1;strokeColor=none;fillColor=none;" parent="9fGKxZIyTzMAZo619aZq-5" vertex="1">
          <mxGeometry x="20" y="35" width="130" height="180" as="geometry" />
        </mxCell>
        <mxCell id="9fGKxZIyTzMAZo619aZq-7" value="&lt;span style=&quot;background-color: rgb(222, 243, 255);&quot;&gt;GDSC Standard Vector Ingest Process&lt;/span&gt;" style="text;strokeColor=none;align=center;fillColor=none;html=1;verticalAlign=middle;whiteSpace=wrap;rounded=0;fontSize=18;" parent="WIyWlLk6GJQsqaUBKTNV-1" vertex="1">
          <mxGeometry x="1370" y="30" width="360" height="30" as="geometry" />
        </mxCell>
        <mxCell id="9fGKxZIyTzMAZo619aZq-8" value="&lt;i style=&quot;border-color: var(--border-color);&quot;&gt;Write bash script to check for problematic column names in json (for ArcGIS compatibility) and spaces in column names in csv files.&lt;/i&gt;" style="text;strokeColor=none;align=center;fillColor=none;html=1;verticalAlign=middle;whiteSpace=wrap;rounded=0;" parent="WIyWlLk6GJQsqaUBKTNV-1" vertex="1">
          <mxGeometry x="1360" y="350" width="170" height="80" as="geometry" />
        </mxCell>
        <mxCell id="9fGKxZIyTzMAZo619aZq-9" value="&lt;span style=&quot;background-color: rgb(230, 255, 204);&quot;&gt;GDSC Standard Raster Ingest Process&lt;/span&gt;" style="text;strokeColor=none;align=center;fillColor=none;html=1;verticalAlign=middle;whiteSpace=wrap;rounded=0;fontSize=18;" parent="WIyWlLk6GJQsqaUBKTNV-1" vertex="1">
          <mxGeometry x="1370" y="480" width="360" height="30" as="geometry" />
        </mxCell>
        <mxCell id="9fGKxZIyTzMAZo619aZq-10" value="&lt;b style=&quot;border-color: var(--border-color); font-family: Calibri, sans-serif; font-size: 14.6667px; text-align: start;&quot;&gt;&lt;span style=&quot;background-color: rgb(222, 243, 255);&quot;&gt;Load into PostGIS pod&lt;/span&gt;&lt;br&gt;&lt;/b&gt;" style="swimlane;whiteSpace=wrap;html=1;" parent="WIyWlLk6GJQsqaUBKTNV-1" vertex="1">
          <mxGeometry x="1570" y="90" width="170" height="140" as="geometry" />
        </mxCell>
        <mxCell id="9fGKxZIyTzMAZo619aZq-11" value="&lt;p style=&quot;margin: 0cm; line-height: normal; font-size: 11pt; font-family: Calibri, sans-serif;&quot; class=&quot;MsoNormal&quot;&gt;load_with_ogr(&lt;/p&gt;&lt;p style=&quot;margin: 0cm 0cm 0cm 9pt; line-height: normal; font-size: 11pt; font-family: Calibri, sans-serif;&quot; class=&quot;MsoNormal&quot;&gt;&lt;span lang=&quot;EN-US&quot;&gt;scripts,&lt;/span&gt;&lt;/p&gt;&lt;p style=&quot;margin: 0cm 0cm 0cm 9pt; line-height: normal; font-size: 11pt; font-family: Calibri, sans-serif;&quot; class=&quot;MsoNormal&quot;&gt;&lt;span lang=&quot;EN-US&quot;&gt;pod,&lt;/span&gt;&lt;/p&gt;&lt;p style=&quot;margin: 0cm 0cm 0cm 9pt; line-height: normal; font-size: 11pt; font-family: Calibri, sans-serif;&quot; class=&quot;MsoNormal&quot;&gt;&lt;span lang=&quot;EN-US&quot;&gt;opts&lt;/span&gt;&lt;/p&gt;&lt;p style=&quot;margin: 0cm; line-height: normal; font-size: 11pt; font-family: Calibri, sans-serif;&quot; class=&quot;MsoNormal&quot;&gt;&lt;span lang=&quot;EN-US&quot;&gt;)&lt;/span&gt;&lt;/p&gt;" style="text;html=1;align=left;verticalAlign=middle;resizable=0;points=[];autosize=1;strokeColor=none;fillColor=none;" parent="9fGKxZIyTzMAZo619aZq-10" vertex="1">
          <mxGeometry x="20" y="35" width="110" height="100" as="geometry" />
        </mxCell>
        <mxCell id="9fGKxZIyTzMAZo619aZq-13" value="&lt;b style=&quot;border-color: var(--border-color); font-family: Calibri, sans-serif; font-size: 14.6667px; text-align: start;&quot;&gt;&lt;span style=&quot;background-color: rgb(222, 243, 255);&quot;&gt;Data transforms&lt;/span&gt;&lt;br&gt;&lt;/b&gt;" style="swimlane;whiteSpace=wrap;html=1;" parent="WIyWlLk6GJQsqaUBKTNV-1" vertex="1">
          <mxGeometry x="1770" y="90" width="170" height="230" as="geometry" />
        </mxCell>
        <mxCell id="9fGKxZIyTzMAZo619aZq-14" value="&lt;p style=&quot;margin: 0cm; line-height: normal; font-size: 11pt; font-family: Calibri, sans-serif;&quot; class=&quot;MsoNormal&quot;&gt;&lt;span style=&quot;font-size: 11pt; background-color: initial;&quot;&gt;sanitize_geometries(&lt;/span&gt;&lt;br&gt;&lt;/p&gt;&lt;p style=&quot;border-color: var(--border-color); margin: 0cm 0cm 0cm 9pt; line-height: normal; font-size: 11pt; font-family: Calibri, sans-serif;&quot; class=&quot;MsoNormal&quot;&gt;scripts,&lt;/p&gt;&lt;p style=&quot;border-color: var(--border-color); margin: 0cm 0cm 0cm 9pt; line-height: normal; font-size: 11pt; font-family: Calibri, sans-serif;&quot; class=&quot;MsoNormal&quot;&gt;&lt;span style=&quot;border-color: var(--border-color);&quot; lang=&quot;EN-US&quot;&gt;pod,&lt;/span&gt;&lt;/p&gt;&lt;p style=&quot;border-color: var(--border-color); margin: 0cm 0cm 0cm 9pt; line-height: normal; font-size: 11pt; font-family: Calibri, sans-serif;&quot; class=&quot;MsoNormal&quot;&gt;&lt;span style=&quot;border-color: var(--border-color);&quot; lang=&quot;EN-US&quot;&gt;opts&lt;/span&gt;&lt;/p&gt;&lt;p style=&quot;border-color: var(--border-color); margin: 0cm; line-height: normal; font-size: 11pt; font-family: Calibri, sans-serif;&quot; class=&quot;MsoNormal&quot;&gt;&lt;span style=&quot;border-color: var(--border-color);&quot; lang=&quot;EN-US&quot;&gt;&lt;span style=&quot;font-size: 11pt; background-color: initial;&quot;&gt;)&lt;/span&gt;&lt;/span&gt;&lt;/p&gt;&lt;p style=&quot;border-color: var(--border-color); margin: 0cm; line-height: normal; font-size: 11pt; font-family: Calibri, sans-serif;&quot; class=&quot;MsoNormal&quot;&gt;reproject_and_index(&lt;/p&gt;&lt;p style=&quot;border-color: var(--border-color); margin: 0cm 0cm 0cm 9pt; line-height: normal; font-size: 11pt; font-family: Calibri, sans-serif;&quot; class=&quot;MsoNormal&quot;&gt;scripts,&lt;/p&gt;&lt;p style=&quot;border-color: var(--border-color); margin: 0cm 0cm 0cm 9pt; line-height: normal; font-size: 11pt; font-family: Calibri, sans-serif;&quot; class=&quot;MsoNormal&quot;&gt;pod,&lt;/p&gt;&lt;p style=&quot;border-color: var(--border-color); margin: 0cm 0cm 0cm 9pt; line-height: normal; font-size: 11pt; font-family: Calibri, sans-serif;&quot; class=&quot;MsoNormal&quot;&gt;&lt;span style=&quot;border-color: var(--border-color);&quot; lang=&quot;EN-US&quot;&gt;opts&lt;/span&gt;&lt;/p&gt;&lt;p style=&quot;border-color: var(--border-color); margin: 0cm; line-height: normal; font-size: 11pt; font-family: Calibri, sans-serif;&quot; class=&quot;MsoNormal&quot;&gt;&lt;span style=&quot;border-color: var(--border-color);&quot; lang=&quot;EN-US&quot;&gt;&lt;/span&gt;&lt;/p&gt;&lt;p style=&quot;border-color: var(--border-color); margin: 0cm; line-height: normal; font-size: 11pt; font-family: Calibri, sans-serif;&quot; class=&quot;MsoNormal&quot;&gt;&lt;span style=&quot;border-color: var(--border-color);&quot; lang=&quot;EN-US&quot;&gt;)&lt;/span&gt;&lt;/p&gt;" style="text;html=1;align=left;verticalAlign=middle;resizable=0;points=[];autosize=1;strokeColor=none;fillColor=none;" parent="9fGKxZIyTzMAZo619aZq-13" vertex="1">
          <mxGeometry x="15" y="35" width="150" height="190" as="geometry" />
        </mxCell>
        <mxCell id="9fGKxZIyTzMAZo619aZq-15" value="&lt;i style=&quot;border-color: var(--border-color);&quot;&gt;Write SQL script to remove duplicate points and validate geometries and then re-project to local CRS and rebuild spatial indices.&lt;/i&gt;" style="text;strokeColor=none;align=center;fillColor=none;html=1;verticalAlign=middle;whiteSpace=wrap;rounded=0;" parent="WIyWlLk6GJQsqaUBKTNV-1" vertex="1">
          <mxGeometry x="1770" y="350" width="170" height="80" as="geometry" />
        </mxCell>
        <mxCell id="9fGKxZIyTzMAZo619aZq-16" value="&lt;i style=&quot;border-color: var(--border-color);&quot;&gt;Write OGR/GDAL bash script to load all simple vector data into postGIS. For csv use the given lat/lon columns in the metadata.&lt;/i&gt;" style="text;strokeColor=none;align=center;fillColor=none;html=1;verticalAlign=middle;whiteSpace=wrap;rounded=0;" parent="WIyWlLk6GJQsqaUBKTNV-1" vertex="1">
          <mxGeometry x="1570" y="350" width="170" height="70" as="geometry" />
        </mxCell>
        <mxCell id="9fGKxZIyTzMAZo619aZq-17" value="&lt;b style=&quot;border-color: var(--border-color); font-family: Calibri, sans-serif; font-size: 14.6667px; text-align: start;&quot;&gt;&lt;span style=&quot;background-color: rgb(230, 255, 204);&quot;&gt;Load into PostGIS pod&lt;/span&gt;&lt;br&gt;&lt;/b&gt;" style="swimlane;whiteSpace=wrap;html=1;" parent="WIyWlLk6GJQsqaUBKTNV-1" vertex="1">
          <mxGeometry x="1370" y="540" width="170" height="140" as="geometry" />
        </mxCell>
        <mxCell id="9fGKxZIyTzMAZo619aZq-18" value="&lt;p style=&quot;margin: 0cm; line-height: normal; font-size: 11pt; font-family: Calibri, sans-serif;&quot; class=&quot;MsoNormal&quot;&gt;load_with_gdal(&lt;/p&gt;&lt;p style=&quot;margin: 0cm 0cm 0cm 9pt; line-height: normal; font-size: 11pt; font-family: Calibri, sans-serif;&quot; class=&quot;MsoNormal&quot;&gt;&lt;span lang=&quot;EN-US&quot;&gt;scripts,&lt;/span&gt;&lt;/p&gt;&lt;p style=&quot;margin: 0cm 0cm 0cm 9pt; line-height: normal; font-size: 11pt; font-family: Calibri, sans-serif;&quot; class=&quot;MsoNormal&quot;&gt;&lt;span lang=&quot;EN-US&quot;&gt;pod,&lt;/span&gt;&lt;/p&gt;&lt;p style=&quot;margin: 0cm 0cm 0cm 9pt; line-height: normal; font-size: 11pt; font-family: Calibri, sans-serif;&quot; class=&quot;MsoNormal&quot;&gt;&lt;span lang=&quot;EN-US&quot;&gt;opts&lt;/span&gt;&lt;/p&gt;&lt;p style=&quot;margin: 0cm; line-height: normal; font-size: 11pt; font-family: Calibri, sans-serif;&quot; class=&quot;MsoNormal&quot;&gt;&lt;span lang=&quot;EN-US&quot;&gt;)&lt;/span&gt;&lt;/p&gt;" style="text;html=1;align=left;verticalAlign=middle;resizable=0;points=[];autosize=1;strokeColor=none;fillColor=none;" parent="9fGKxZIyTzMAZo619aZq-17" vertex="1">
          <mxGeometry x="20" y="35" width="120" height="100" as="geometry" />
        </mxCell>
        <mxCell id="9fGKxZIyTzMAZo619aZq-19" value="&lt;b style=&quot;border-color: var(--border-color); font-family: Calibri, sans-serif; font-size: 14.6667px; text-align: start;&quot;&gt;&lt;span style=&quot;background-color: rgb(255, 255, 204);&quot;&gt;Check for dependencies&lt;/span&gt;&lt;br&gt;&lt;/b&gt;" style="swimlane;whiteSpace=wrap;html=1;" parent="WIyWlLk6GJQsqaUBKTNV-1" vertex="1">
          <mxGeometry x="1160" y="90" width="180" height="80" as="geometry" />
        </mxCell>
        <mxCell id="9fGKxZIyTzMAZo619aZq-20" value="&lt;p style=&quot;border-color: var(--border-color); margin: 0cm; line-height: normal; font-size: 11pt; font-family: Calibri, sans-serif;&quot; class=&quot;MsoNormal&quot;&gt;&lt;font face=&quot;Calibri, sans-serif&quot;&gt;if &#39;dependency&#39; in opts&lt;/font&gt;&lt;br&gt;&lt;/p&gt;&lt;p style=&quot;border-color: var(--border-color); margin: 0cm; line-height: normal; font-size: 11pt; font-family: Calibri, sans-serif;&quot; class=&quot;MsoNormal&quot;&gt;&lt;span style=&quot;border-color: var(--border-color);&quot; lang=&quot;EN-US&quot;&gt;&lt;br&gt;&lt;/span&gt;&lt;/p&gt;" style="text;html=1;align=left;verticalAlign=middle;resizable=0;points=[];autosize=1;strokeColor=none;fillColor=none;" parent="9fGKxZIyTzMAZo619aZq-19" vertex="1">
          <mxGeometry x="20" y="35" width="160" height="50" as="geometry" />
        </mxCell>
        <mxCell id="9fGKxZIyTzMAZo619aZq-21" value="&lt;i style=&quot;border-color: var(--border-color);&quot;&gt;Use raster2pgsql to write bash script to load raster into postGIS.&amp;nbsp;&lt;/i&gt;" style="text;strokeColor=none;align=center;fillColor=none;html=1;verticalAlign=middle;whiteSpace=wrap;rounded=0;" parent="WIyWlLk6GJQsqaUBKTNV-1" vertex="1">
          <mxGeometry x="1370" y="710" width="170" height="50" as="geometry" />
        </mxCell>
        <mxCell id="01RbV2M24BSQ1nTZ_oYk-1" style="edgeStyle=orthogonalEdgeStyle;rounded=0;orthogonalLoop=1;jettySize=auto;html=1;entryX=0.5;entryY=1;entryDx=0;entryDy=0;" parent="WIyWlLk6GJQsqaUBKTNV-1" target="9fGKxZIyTzMAZo619aZq-0" edge="1">
          <mxGeometry relative="1" as="geometry">
            <mxPoint x="1245" y="430" as="sourcePoint" />
            <Array as="points">
              <mxPoint x="1245" y="800" />
              <mxPoint x="145" y="800" />
            </Array>
          </mxGeometry>
        </mxCell>
        <mxCell id="9fGKxZIyTzMAZo619aZq-22" value="&lt;i style=&quot;border-color: var(--border-color);&quot;&gt;Check for any dependancies and load as needed; this loops back to beginning of process for each dependency.&lt;/i&gt;" style="text;strokeColor=none;align=center;fillColor=none;html=1;verticalAlign=middle;whiteSpace=wrap;rounded=0;" parent="WIyWlLk6GJQsqaUBKTNV-1" vertex="1">
          <mxGeometry x="1160" y="350" width="170" height="70" as="geometry" />
        </mxCell>
        <mxCell id="9fGKxZIyTzMAZo619aZq-23" value="&lt;span style=&quot;background-color: rgb(222, 243, 255);&quot;&gt;GDSC Custom Vector Ingest Process&lt;/span&gt;" style="text;strokeColor=none;align=center;fillColor=none;html=1;verticalAlign=middle;whiteSpace=wrap;rounded=0;fontSize=18;" parent="WIyWlLk6GJQsqaUBKTNV-1" vertex="1">
          <mxGeometry x="2260" y="30" width="360" height="30" as="geometry" />
        </mxCell>
        <mxCell id="9fGKxZIyTzMAZo619aZq-24" value="&lt;b style=&quot;border-color: var(--border-color); font-family: Calibri, sans-serif; font-size: 14.6667px; text-align: start;&quot;&gt;&lt;span style=&quot;background-color: rgb(255, 255, 204);&quot;&gt;Check for custom ETL&lt;/span&gt;&lt;br&gt;&lt;/b&gt;" style="swimlane;whiteSpace=wrap;html=1;" parent="WIyWlLk6GJQsqaUBKTNV-1" vertex="1">
          <mxGeometry x="1980" y="90" width="180" height="80" as="geometry" />
        </mxCell>
        <mxCell id="9fGKxZIyTzMAZo619aZq-25" value="&lt;p style=&quot;border-color: var(--border-color); margin: 0cm; line-height: normal; font-size: 14.6667px;&quot; class=&quot;MsoNormal&quot;&gt;&lt;font face=&quot;Calibri, sans-serif&quot; style=&quot;font-size: 14.6667px;&quot;&gt;if &#39;custom_etl&#39; in opts&lt;/font&gt;&lt;br style=&quot;font-size: 14.6667px;&quot;&gt;&lt;/p&gt;" style="text;html=1;align=left;verticalAlign=middle;resizable=0;points=[];autosize=1;strokeColor=none;fillColor=none;fontSize=14.66666666;" parent="9fGKxZIyTzMAZo619aZq-24" vertex="1">
          <mxGeometry x="20" y="35" width="150" height="30" as="geometry" />
        </mxCell>
        <mxCell id="9fGKxZIyTzMAZo619aZq-27" value="&lt;span style=&quot;background-color: rgb(230, 255, 204);&quot;&gt;GDSC Custom Raster Ingest Process&lt;/span&gt;" style="text;strokeColor=none;align=center;fillColor=none;html=1;verticalAlign=middle;whiteSpace=wrap;rounded=0;fontSize=18;" parent="WIyWlLk6GJQsqaUBKTNV-1" vertex="1">
          <mxGeometry x="2260" y="480" width="360" height="30" as="geometry" />
        </mxCell>
        <mxCell id="9fGKxZIyTzMAZo619aZq-28" value="&lt;b style=&quot;border-color: var(--border-color); font-family: Calibri, sans-serif; font-size: 14.6667px; text-align: start;&quot;&gt;&lt;span style=&quot;background-color: rgb(222, 243, 255);&quot;&gt;Custom Census ETL&lt;/span&gt;&lt;br&gt;&lt;/b&gt;" style="swimlane;whiteSpace=wrap;html=1;" parent="WIyWlLk6GJQsqaUBKTNV-1" vertex="1">
          <mxGeometry x="2260" y="90" width="180" height="270" as="geometry" />
        </mxCell>
        <mxCell id="9fGKxZIyTzMAZo619aZq-29" value="&lt;p style=&quot;margin: 0cm; line-height: normal; font-size: 11pt; font-family: Calibri, sans-serif;&quot; class=&quot;MsoNormal&quot;&gt;&lt;/p&gt;&lt;font face=&quot;Calibri, sans-serif&quot;&gt;&lt;span style=&quot;font-size: 14.6667px;&quot;&gt;acs_custom_aggregate&lt;/span&gt;&lt;/font&gt;&lt;span style=&quot;background-color: initial; font-size: 11pt; font-family: Calibri, sans-serif;&quot;&gt;(&lt;/span&gt;&lt;font face=&quot;Calibri, sans-serif&quot;&gt;&lt;span style=&quot;font-size: 14.6667px;&quot;&gt;&lt;br&gt;&lt;/span&gt;&lt;/font&gt;&lt;p style=&quot;border-color: var(--border-color); margin: 0cm 0cm 0cm 9pt; line-height: normal; font-size: 11pt; font-family: Calibri, sans-serif;&quot; class=&quot;MsoNormal&quot;&gt;scripts,&lt;/p&gt;&lt;p style=&quot;border-color: var(--border-color); margin: 0cm 0cm 0cm 9pt; line-height: normal; font-size: 11pt; font-family: Calibri, sans-serif;&quot; class=&quot;MsoNormal&quot;&gt;&lt;span style=&quot;border-color: var(--border-color);&quot; lang=&quot;EN-US&quot;&gt;pod,&lt;/span&gt;&lt;/p&gt;&lt;p style=&quot;border-color: var(--border-color); margin: 0cm 0cm 0cm 9pt; line-height: normal; font-size: 11pt; font-family: Calibri, sans-serif;&quot; class=&quot;MsoNormal&quot;&gt;&lt;span style=&quot;border-color: var(--border-color);&quot; lang=&quot;EN-US&quot;&gt;opts,&lt;/span&gt;&lt;/p&gt;&lt;p style=&quot;border-color: var(--border-color); margin: 0cm 0cm 0cm 9pt; line-height: normal; font-size: 11pt; font-family: Calibri, sans-serif;&quot; class=&quot;MsoNormal&quot;&gt;&lt;span style=&quot;border-color: var(--border-color);&quot; lang=&quot;EN-US&quot;&gt;pg&lt;/span&gt;&lt;/p&gt;&lt;p style=&quot;border-color: var(--border-color); margin: 0cm; line-height: normal; font-size: 11pt; font-family: Calibri, sans-serif;&quot; class=&quot;MsoNormal&quot;&gt;&lt;span style=&quot;border-color: var(--border-color);&quot; lang=&quot;EN-US&quot;&gt;&lt;span style=&quot;font-size: 11pt; background-color: initial;&quot;&gt;)&lt;/span&gt;&lt;/span&gt;&lt;/p&gt;&lt;p style=&quot;border-color: var(--border-color); margin: 0cm; line-height: normal; font-size: 11pt; font-family: Calibri, sans-serif;&quot; class=&quot;MsoNormal&quot;&gt;census_fips(&lt;/p&gt;&lt;p style=&quot;border-color: var(--border-color); margin: 0cm 0cm 0cm 9pt; line-height: normal; font-size: 11pt; font-family: Calibri, sans-serif;&quot; class=&quot;MsoNormal&quot;&gt;scripts,&lt;/p&gt;&lt;p style=&quot;border-color: var(--border-color); margin: 0cm 0cm 0cm 9pt; line-height: normal; font-size: 11pt; font-family: Calibri, sans-serif;&quot; class=&quot;MsoNormal&quot;&gt;pod,&lt;/p&gt;&lt;p style=&quot;border-color: var(--border-color); margin: 0cm 0cm 0cm 9pt; line-height: normal; font-size: 11pt; font-family: Calibri, sans-serif;&quot; class=&quot;MsoNormal&quot;&gt;&lt;span style=&quot;border-color: var(--border-color);&quot; lang=&quot;EN-US&quot;&gt;opts,&lt;/span&gt;&lt;/p&gt;&lt;p style=&quot;border-color: var(--border-color); margin: 0cm 0cm 0cm 9pt; line-height: normal; font-size: 11pt; font-family: Calibri, sans-serif;&quot; class=&quot;MsoNormal&quot;&gt;&lt;span style=&quot;border-color: var(--border-color);&quot; lang=&quot;EN-US&quot;&gt;pg&lt;/span&gt;&lt;/p&gt;&lt;p style=&quot;border-color: var(--border-color); margin: 0cm; line-height: normal; font-size: 11pt; font-family: Calibri, sans-serif;&quot; class=&quot;MsoNormal&quot;&gt;&lt;span style=&quot;border-color: var(--border-color);&quot; lang=&quot;EN-US&quot;&gt;&lt;/span&gt;&lt;/p&gt;&lt;p style=&quot;border-color: var(--border-color); margin: 0cm; line-height: normal; font-size: 11pt; font-family: Calibri, sans-serif;&quot; class=&quot;MsoNormal&quot;&gt;&lt;span style=&quot;border-color: var(--border-color);&quot; lang=&quot;EN-US&quot;&gt;)&lt;/span&gt;&lt;/p&gt;" style="text;html=1;align=left;verticalAlign=middle;resizable=0;points=[];autosize=1;strokeColor=none;fillColor=none;" parent="9fGKxZIyTzMAZo619aZq-28" vertex="1">
          <mxGeometry x="15" y="35" width="160" height="230" as="geometry" />
        </mxCell>
        <mxCell id="9fGKxZIyTzMAZo619aZq-31" value="&lt;b style=&quot;border-color: var(--border-color); font-family: Calibri, sans-serif; font-size: 14.6667px; text-align: start;&quot;&gt;&lt;span style=&quot;background-color: rgb(222, 243, 255);&quot;&gt;Custom EPA ETL&lt;/span&gt;&lt;br&gt;&lt;/b&gt;" style="swimlane;whiteSpace=wrap;html=1;" parent="WIyWlLk6GJQsqaUBKTNV-1" vertex="1">
          <mxGeometry x="2470" y="90" width="180" height="170" as="geometry" />
        </mxCell>
        <mxCell id="9fGKxZIyTzMAZo619aZq-32" value="&lt;p style=&quot;margin: 0cm; line-height: normal; font-size: 11pt; font-family: Calibri, sans-serif;&quot; class=&quot;MsoNormal&quot;&gt;&lt;/p&gt;&lt;font style=&quot;font-size: 14.6667px;&quot;&gt;&lt;font style=&quot;font-size: 14.6667px;&quot; face=&quot;Calibri, sans-serif&quot;&gt;annual_epa_aqs_county(&lt;/font&gt;&lt;span style=&quot;background-color: initial;&quot;&gt;&lt;/span&gt;&lt;font style=&quot;font-size: 14.6667px;&quot; face=&quot;Calibri, sans-serif&quot;&gt;&lt;br&gt;&lt;/font&gt;&lt;/font&gt;&lt;p style=&quot;border-color: var(--border-color); margin: 0cm 0cm 0cm 9pt; line-height: normal; font-size: 11pt; font-family: Calibri, sans-serif;&quot; class=&quot;MsoNormal&quot;&gt;scripts,&lt;/p&gt;&lt;p style=&quot;border-color: var(--border-color); margin: 0cm 0cm 0cm 9pt; line-height: normal; font-size: 11pt; font-family: Calibri, sans-serif;&quot; class=&quot;MsoNormal&quot;&gt;&lt;span style=&quot;border-color: var(--border-color);&quot; lang=&quot;EN-US&quot;&gt;pod,&lt;/span&gt;&lt;/p&gt;&lt;p style=&quot;border-color: var(--border-color); margin: 0cm 0cm 0cm 9pt; line-height: normal; font-size: 11pt; font-family: Calibri, sans-serif;&quot; class=&quot;MsoNormal&quot;&gt;&lt;span style=&quot;border-color: var(--border-color);&quot; lang=&quot;EN-US&quot;&gt;opts,&lt;/span&gt;&lt;/p&gt;&lt;p style=&quot;border-color: var(--border-color); margin: 0cm 0cm 0cm 9pt; line-height: normal; font-size: 11pt; font-family: Calibri, sans-serif;&quot; class=&quot;MsoNormal&quot;&gt;&lt;span style=&quot;border-color: var(--border-color);&quot; lang=&quot;EN-US&quot;&gt;pg&lt;/span&gt;&lt;/p&gt;&lt;p style=&quot;border-color: var(--border-color); margin: 0cm; line-height: normal; font-size: 11pt; font-family: Calibri, sans-serif;&quot; class=&quot;MsoNormal&quot;&gt;&lt;span style=&quot;border-color: var(--border-color);&quot; lang=&quot;EN-US&quot;&gt;&lt;span style=&quot;font-size: 11pt; background-color: initial;&quot;&gt;)&lt;/span&gt;&lt;/span&gt;&lt;/p&gt;" style="text;html=1;align=left;verticalAlign=middle;resizable=0;points=[];autosize=1;strokeColor=none;fillColor=none;" parent="9fGKxZIyTzMAZo619aZq-31" vertex="1">
          <mxGeometry x="15" y="35" width="170" height="120" as="geometry" />
        </mxCell>
        <mxCell id="9fGKxZIyTzMAZo619aZq-34" value="&lt;b style=&quot;border-color: var(--border-color); font-family: Calibri, sans-serif; font-size: 14.6667px; text-align: start;&quot;&gt;&lt;span style=&quot;background-color: rgb(222, 243, 255);&quot;&gt;Custom OSM ETL&lt;/span&gt;&lt;br&gt;&lt;/b&gt;" style="swimlane;whiteSpace=wrap;html=1;" parent="WIyWlLk6GJQsqaUBKTNV-1" vertex="1">
          <mxGeometry x="2680" y="90" width="180" height="170" as="geometry" />
        </mxCell>
        <mxCell id="9fGKxZIyTzMAZo619aZq-35" value="&lt;p style=&quot;margin: 0cm; line-height: normal; font-size: 11pt; font-family: Calibri, sans-serif;&quot; class=&quot;MsoNormal&quot;&gt;&lt;/p&gt;&lt;font style=&quot;font-size: 14.6667px;&quot;&gt;&lt;font style=&quot;font-size: 14.6667px;&quot; face=&quot;Calibri, sans-serif&quot;&gt;osm_sql_subset(&lt;/font&gt;&lt;span style=&quot;background-color: initial;&quot;&gt;&lt;/span&gt;&lt;font style=&quot;font-size: 14.6667px;&quot; face=&quot;Calibri, sans-serif&quot;&gt;&lt;br&gt;&lt;/font&gt;&lt;/font&gt;&lt;p style=&quot;border-color: var(--border-color); margin: 0cm 0cm 0cm 9pt; line-height: normal; font-size: 11pt; font-family: Calibri, sans-serif;&quot; class=&quot;MsoNormal&quot;&gt;scripts,&lt;/p&gt;&lt;p style=&quot;border-color: var(--border-color); margin: 0cm 0cm 0cm 9pt; line-height: normal; font-size: 11pt; font-family: Calibri, sans-serif;&quot; class=&quot;MsoNormal&quot;&gt;&lt;span style=&quot;border-color: var(--border-color);&quot; lang=&quot;EN-US&quot;&gt;pod,&lt;/span&gt;&lt;/p&gt;&lt;p style=&quot;border-color: var(--border-color); margin: 0cm 0cm 0cm 9pt; line-height: normal; font-size: 11pt; font-family: Calibri, sans-serif;&quot; class=&quot;MsoNormal&quot;&gt;&lt;span style=&quot;border-color: var(--border-color);&quot; lang=&quot;EN-US&quot;&gt;opts&lt;/span&gt;&lt;/p&gt;&lt;p style=&quot;border-color: var(--border-color); margin: 0cm; line-height: normal; font-size: 11pt; font-family: Calibri, sans-serif;&quot; class=&quot;MsoNormal&quot;&gt;&lt;span style=&quot;border-color: var(--border-color);&quot; lang=&quot;EN-US&quot;&gt;&lt;span style=&quot;font-size: 11pt; background-color: initial;&quot;&gt;)&lt;/span&gt;&lt;/span&gt;&lt;/p&gt;" style="text;html=1;align=left;verticalAlign=middle;resizable=0;points=[];autosize=1;strokeColor=none;fillColor=none;" parent="9fGKxZIyTzMAZo619aZq-34" vertex="1">
          <mxGeometry x="15" y="35" width="120" height="100" as="geometry" />
        </mxCell>
        <mxCell id="9fGKxZIyTzMAZo619aZq-36" value="&lt;b style=&quot;border-color: var(--border-color); font-family: Calibri, sans-serif; font-size: 14.6667px; text-align: start;&quot;&gt;&lt;span style=&quot;background-color: rgb(222, 243, 255);&quot;&gt;Custom ETL utilities&lt;/span&gt;&lt;br&gt;&lt;/b&gt;" style="swimlane;whiteSpace=wrap;html=1;" parent="WIyWlLk6GJQsqaUBKTNV-1" vertex="1">
          <mxGeometry x="2890" y="90" width="180" height="270" as="geometry" />
        </mxCell>
        <mxCell id="9fGKxZIyTzMAZo619aZq-37" value="&lt;p style=&quot;margin: 0cm; line-height: normal; font-size: 11pt; font-family: Calibri, sans-serif;&quot; class=&quot;MsoNormal&quot;&gt;&lt;/p&gt;&lt;font style=&quot;font-size: 14.6667px;&quot;&gt;&lt;font style=&quot;font-size: 14.6667px;&quot; face=&quot;Calibri, sans-serif&quot;&gt;aggregate(&lt;/font&gt;&lt;span style=&quot;background-color: initial;&quot;&gt;&lt;/span&gt;&lt;font style=&quot;font-size: 14.6667px;&quot; face=&quot;Calibri, sans-serif&quot;&gt;&lt;br&gt;&lt;/font&gt;&lt;/font&gt;&lt;p style=&quot;border-color: var(--border-color); margin: 0cm 0cm 0cm 9pt; line-height: normal; font-size: 11pt; font-family: Calibri, sans-serif;&quot; class=&quot;MsoNormal&quot;&gt;scripts,&lt;/p&gt;&lt;p style=&quot;border-color: var(--border-color); margin: 0cm 0cm 0cm 9pt; line-height: normal; font-size: 11pt; font-family: Calibri, sans-serif;&quot; class=&quot;MsoNormal&quot;&gt;&lt;span style=&quot;border-color: var(--border-color);&quot; lang=&quot;EN-US&quot;&gt;pod,&lt;/span&gt;&lt;/p&gt;&lt;p style=&quot;border-color: var(--border-color); margin: 0cm 0cm 0cm 9pt; line-height: normal; font-size: 11pt; font-family: Calibri, sans-serif;&quot; class=&quot;MsoNormal&quot;&gt;&lt;span style=&quot;border-color: var(--border-color);&quot; lang=&quot;EN-US&quot;&gt;opts,&lt;/span&gt;&lt;/p&gt;&lt;p style=&quot;border-color: var(--border-color); margin: 0cm 0cm 0cm 9pt; line-height: normal; font-size: 11pt; font-family: Calibri, sans-serif;&quot; class=&quot;MsoNormal&quot;&gt;&lt;span style=&quot;border-color: var(--border-color);&quot; lang=&quot;EN-US&quot;&gt;pg&lt;/span&gt;&lt;/p&gt;&lt;p style=&quot;border-color: var(--border-color); margin: 0cm; line-height: normal; font-size: 11pt; font-family: Calibri, sans-serif;&quot; class=&quot;MsoNormal&quot;&gt;&lt;span style=&quot;border-color: var(--border-color);&quot; lang=&quot;EN-US&quot;&gt;&lt;span style=&quot;font-size: 11pt; background-color: initial;&quot;&gt;)&lt;/span&gt;&lt;/span&gt;&lt;/p&gt;&lt;p style=&quot;border-color: var(--border-color); margin: 0cm; line-height: normal; font-size: 11pt; font-family: Calibri, sans-serif;&quot; class=&quot;MsoNormal&quot;&gt;&lt;font style=&quot;border-color: var(--border-color); font-family: Helvetica; font-size: 14.6667px;&quot;&gt;&lt;font style=&quot;border-color: var(--border-color); font-size: 14.6667px;&quot; face=&quot;Calibri, sans-serif&quot;&gt;join(&lt;/font&gt;&lt;font style=&quot;border-color: var(--border-color); font-size: 14.6667px;&quot; face=&quot;Calibri, sans-serif&quot;&gt;&lt;br style=&quot;border-color: var(--border-color);&quot;&gt;&lt;/font&gt;&lt;/font&gt;&lt;span style=&quot;border-color: var(--border-color);&quot; lang=&quot;EN-US&quot;&gt;&lt;/span&gt;&lt;/p&gt;&lt;p style=&quot;border-color: var(--border-color); margin: 0cm 0cm 0cm 9pt; line-height: normal; font-size: 11pt; font-family: Calibri, sans-serif;&quot; class=&quot;MsoNormal&quot;&gt;scripts,&lt;/p&gt;&lt;p style=&quot;border-color: var(--border-color); margin: 0cm 0cm 0cm 9pt; line-height: normal; font-size: 11pt; font-family: Calibri, sans-serif;&quot; class=&quot;MsoNormal&quot;&gt;&lt;span style=&quot;border-color: var(--border-color);&quot; lang=&quot;EN-US&quot;&gt;pod,&lt;/span&gt;&lt;/p&gt;&lt;p style=&quot;border-color: var(--border-color); margin: 0cm 0cm 0cm 9pt; line-height: normal; font-size: 11pt; font-family: Calibri, sans-serif;&quot; class=&quot;MsoNormal&quot;&gt;&lt;span style=&quot;border-color: var(--border-color);&quot; lang=&quot;EN-US&quot;&gt;opts,&lt;/span&gt;&lt;/p&gt;&lt;p style=&quot;border-color: var(--border-color); margin: 0cm 0cm 0cm 9pt; line-height: normal; font-size: 11pt; font-family: Calibri, sans-serif;&quot; class=&quot;MsoNormal&quot;&gt;&lt;span style=&quot;border-color: var(--border-color);&quot; lang=&quot;EN-US&quot;&gt;pg&lt;/span&gt;&lt;/p&gt;&lt;p style=&quot;border-color: var(--border-color); margin: 0cm; line-height: normal; font-size: 11pt; font-family: Calibri, sans-serif;&quot; class=&quot;MsoNormal&quot;&gt;&lt;span style=&quot;border-color: var(--border-color);&quot; lang=&quot;EN-US&quot;&gt;&lt;/span&gt;&lt;/p&gt;&lt;p style=&quot;border-color: var(--border-color); margin: 0cm; line-height: normal; font-size: 11pt; font-family: Calibri, sans-serif;&quot; class=&quot;MsoNormal&quot;&gt;&lt;span style=&quot;border-color: var(--border-color);&quot; lang=&quot;EN-US&quot;&gt;)&lt;/span&gt;&lt;/p&gt;" style="text;html=1;align=left;verticalAlign=middle;resizable=0;points=[];autosize=1;strokeColor=none;fillColor=none;" parent="9fGKxZIyTzMAZo619aZq-36" vertex="1">
          <mxGeometry x="20" y="35" width="90" height="230" as="geometry" />
        </mxCell>
        <mxCell id="w1L6jdCc1MZnMAGHFATU-0" value="&lt;b style=&quot;border-color: var(--border-color); font-family: Calibri, sans-serif; font-size: 14.6667px; text-align: start;&quot;&gt;&lt;span style=&quot;background-color: rgb(230, 255, 204);&quot;&gt;Custom raster resample&lt;/span&gt;&lt;br&gt;&lt;/b&gt;" style="swimlane;whiteSpace=wrap;html=1;" parent="WIyWlLk6GJQsqaUBKTNV-1" vertex="1">
          <mxGeometry x="2260" y="540" width="180" height="160" as="geometry" />
        </mxCell>
        <mxCell id="w1L6jdCc1MZnMAGHFATU-1" value="&lt;p style=&quot;margin: 0cm; line-height: normal; font-size: 11pt; font-family: Calibri, sans-serif;&quot; class=&quot;MsoNormal&quot;&gt;&lt;/p&gt;&lt;font face=&quot;Calibri, sans-serif&quot;&gt;&lt;span style=&quot;font-size: 14.6667px;&quot;&gt;raster_resample&lt;/span&gt;&lt;/font&gt;&lt;span style=&quot;background-color: initial; font-size: 11pt; font-family: Calibri, sans-serif;&quot;&gt;(&lt;/span&gt;&lt;font face=&quot;Calibri, sans-serif&quot;&gt;&lt;span style=&quot;font-size: 14.6667px;&quot;&gt;&lt;br&gt;&lt;/span&gt;&lt;/font&gt;&lt;p style=&quot;border-color: var(--border-color); margin: 0cm 0cm 0cm 9pt; line-height: normal; font-size: 11pt; font-family: Calibri, sans-serif;&quot; class=&quot;MsoNormal&quot;&gt;scripts,&lt;/p&gt;&lt;p style=&quot;border-color: var(--border-color); margin: 0cm 0cm 0cm 9pt; line-height: normal; font-size: 11pt; font-family: Calibri, sans-serif;&quot; class=&quot;MsoNormal&quot;&gt;&lt;span style=&quot;border-color: var(--border-color);&quot; lang=&quot;EN-US&quot;&gt;pod,&lt;/span&gt;&lt;/p&gt;&lt;p style=&quot;border-color: var(--border-color); margin: 0cm 0cm 0cm 9pt; line-height: normal; font-size: 11pt; font-family: Calibri, sans-serif;&quot; class=&quot;MsoNormal&quot;&gt;&lt;span style=&quot;border-color: var(--border-color);&quot; lang=&quot;EN-US&quot;&gt;opts,&lt;/span&gt;&lt;/p&gt;&lt;p style=&quot;border-color: var(--border-color); margin: 0cm 0cm 0cm 9pt; line-height: normal; font-size: 11pt; font-family: Calibri, sans-serif;&quot; class=&quot;MsoNormal&quot;&gt;&lt;span style=&quot;border-color: var(--border-color);&quot; lang=&quot;EN-US&quot;&gt;pg&lt;/span&gt;&lt;/p&gt;&lt;p style=&quot;border-color: var(--border-color); margin: 0cm; line-height: normal; font-size: 11pt; font-family: Calibri, sans-serif;&quot; class=&quot;MsoNormal&quot;&gt;&lt;span style=&quot;border-color: var(--border-color);&quot; lang=&quot;EN-US&quot;&gt;&lt;span style=&quot;font-size: 11pt; background-color: initial;&quot;&gt;)&lt;/span&gt;&lt;/span&gt;&lt;/p&gt;" style="text;html=1;align=left;verticalAlign=middle;resizable=0;points=[];autosize=1;strokeColor=none;fillColor=none;" parent="w1L6jdCc1MZnMAGHFATU-0" vertex="1">
          <mxGeometry x="15" y="35" width="120" height="120" as="geometry" />
        </mxCell>
        <mxCell id="w1L6jdCc1MZnMAGHFATU-2" value="&lt;b style=&quot;border-color: var(--border-color); font-family: Calibri, sans-serif; font-size: 14.6667px; text-align: start;&quot;&gt;&lt;span style=&quot;background-color: rgb(230, 255, 204);&quot;&gt;Custom raster interpolate&lt;/span&gt;&lt;br&gt;&lt;/b&gt;" style="swimlane;whiteSpace=wrap;html=1;" parent="WIyWlLk6GJQsqaUBKTNV-1" vertex="1">
          <mxGeometry x="2470" y="540" width="180" height="160" as="geometry" />
        </mxCell>
        <mxCell id="w1L6jdCc1MZnMAGHFATU-3" value="&lt;p style=&quot;margin: 0cm; line-height: normal; font-size: 11pt; font-family: Calibri, sans-serif;&quot; class=&quot;MsoNormal&quot;&gt;&lt;/p&gt;&lt;p style=&quot;border-color: var(--border-color); margin: 0cm; line-height: normal; font-size: 11pt; font-family: Calibri, sans-serif;&quot; class=&quot;MsoNormal&quot;&gt;interpolate_points(&lt;/p&gt;&lt;p style=&quot;border-color: var(--border-color); margin: 0cm 0cm 0cm 9pt; line-height: normal; font-size: 11pt; font-family: Calibri, sans-serif;&quot; class=&quot;MsoNormal&quot;&gt;scripts,&lt;/p&gt;&lt;p style=&quot;border-color: var(--border-color); margin: 0cm 0cm 0cm 9pt; line-height: normal; font-size: 11pt; font-family: Calibri, sans-serif;&quot; class=&quot;MsoNormal&quot;&gt;pod,&lt;/p&gt;&lt;p style=&quot;border-color: var(--border-color); margin: 0cm 0cm 0cm 9pt; line-height: normal; font-size: 11pt; font-family: Calibri, sans-serif;&quot; class=&quot;MsoNormal&quot;&gt;opts,&lt;/p&gt;&lt;p style=&quot;border-color: var(--border-color); margin: 0cm 0cm 0cm 9pt; line-height: normal; font-size: 11pt; font-family: Calibri, sans-serif;&quot; class=&quot;MsoNormal&quot;&gt;&lt;span style=&quot;border-color: var(--border-color);&quot; lang=&quot;EN-US&quot;&gt;pg&lt;/span&gt;&lt;/p&gt;&lt;p style=&quot;border-color: var(--border-color); margin: 0cm; line-height: normal; font-size: 11pt; font-family: Calibri, sans-serif;&quot; class=&quot;MsoNormal&quot;&gt;&lt;span style=&quot;border-color: var(--border-color);&quot; lang=&quot;EN-US&quot;&gt;&lt;/span&gt;&lt;/p&gt;&lt;p style=&quot;border-color: var(--border-color); margin: 0cm; line-height: normal; font-size: 11pt; font-family: Calibri, sans-serif;&quot; class=&quot;MsoNormal&quot;&gt;&lt;span style=&quot;border-color: var(--border-color);&quot; lang=&quot;EN-US&quot;&gt;)&lt;/span&gt;&lt;/p&gt;" style="text;html=1;align=left;verticalAlign=middle;resizable=0;points=[];autosize=1;strokeColor=none;fillColor=none;" parent="w1L6jdCc1MZnMAGHFATU-2" vertex="1">
          <mxGeometry x="15" y="35" width="140" height="120" as="geometry" />
        </mxCell>
        <mxCell id="w1L6jdCc1MZnMAGHFATU-4" value="&lt;b style=&quot;border-color: var(--border-color); font-family: Calibri, sans-serif; font-size: 14.6667px; text-align: start;&quot;&gt;&lt;span style=&quot;background-color: rgb(230, 255, 204);&quot;&gt;Custom raster clip&lt;/span&gt;&lt;br&gt;&lt;/b&gt;" style="swimlane;whiteSpace=wrap;html=1;" parent="WIyWlLk6GJQsqaUBKTNV-1" vertex="1">
          <mxGeometry x="2680" y="540" width="180" height="160" as="geometry" />
        </mxCell>
        <mxCell id="w1L6jdCc1MZnMAGHFATU-5" value="&lt;p style=&quot;margin: 0cm; line-height: normal; font-size: 11pt; font-family: Calibri, sans-serif;&quot; class=&quot;MsoNormal&quot;&gt;&lt;/p&gt;&lt;p style=&quot;border-color: var(--border-color); margin: 0cm; line-height: normal; font-size: 11pt; font-family: Calibri, sans-serif;&quot; class=&quot;MsoNormal&quot;&gt;clip_raster(&lt;/p&gt;&lt;p style=&quot;border-color: var(--border-color); margin: 0cm 0cm 0cm 9pt; line-height: normal; font-size: 11pt; font-family: Calibri, sans-serif;&quot; class=&quot;MsoNormal&quot;&gt;scripts,&lt;/p&gt;&lt;p style=&quot;border-color: var(--border-color); margin: 0cm 0cm 0cm 9pt; line-height: normal; font-size: 11pt; font-family: Calibri, sans-serif;&quot; class=&quot;MsoNormal&quot;&gt;pod,&lt;/p&gt;&lt;p style=&quot;border-color: var(--border-color); margin: 0cm 0cm 0cm 9pt; line-height: normal; font-size: 11pt; font-family: Calibri, sans-serif;&quot; class=&quot;MsoNormal&quot;&gt;opts,&lt;/p&gt;&lt;p style=&quot;border-color: var(--border-color); margin: 0cm 0cm 0cm 9pt; line-height: normal; font-size: 11pt; font-family: Calibri, sans-serif;&quot; class=&quot;MsoNormal&quot;&gt;pg&lt;/p&gt;&lt;p style=&quot;border-color: var(--border-color); margin: 0cm; line-height: normal; font-size: 11pt; font-family: Calibri, sans-serif;&quot; class=&quot;MsoNormal&quot;&gt;&lt;span style=&quot;border-color: var(--border-color);&quot; lang=&quot;EN-US&quot;&gt;&lt;/span&gt;&lt;/p&gt;&lt;p style=&quot;border-color: var(--border-color); margin: 0cm; line-height: normal; font-size: 11pt; font-family: Calibri, sans-serif;&quot; class=&quot;MsoNormal&quot;&gt;&lt;span style=&quot;border-color: var(--border-color);&quot; lang=&quot;EN-US&quot;&gt;)&lt;/span&gt;&lt;/p&gt;" style="text;html=1;align=left;verticalAlign=middle;resizable=0;points=[];autosize=1;strokeColor=none;fillColor=none;" parent="w1L6jdCc1MZnMAGHFATU-4" vertex="1">
          <mxGeometry x="15" y="35" width="90" height="120" as="geometry" />
        </mxCell>
        <mxCell id="01RbV2M24BSQ1nTZ_oYk-0" value="&lt;span style=&quot;background-color: rgb(255, 255, 204);&quot;&gt;GDSC Shared Ingest Processes&lt;/span&gt;" style="text;strokeColor=none;align=center;fillColor=none;html=1;verticalAlign=middle;whiteSpace=wrap;rounded=0;fontSize=18;" parent="WIyWlLk6GJQsqaUBKTNV-1" vertex="1">
          <mxGeometry x="3360" y="30" width="360" height="30" as="geometry" />
        </mxCell>
        <mxCell id="01RbV2M24BSQ1nTZ_oYk-2" value="&lt;b style=&quot;border-color: var(--border-color); font-family: Calibri, sans-serif; font-size: 14.6667px; text-align: start;&quot;&gt;&lt;span style=&quot;background-color: rgb(255, 255, 204);&quot;&gt;Metadata utilities&lt;/span&gt;&lt;br&gt;&lt;/b&gt;" style="swimlane;whiteSpace=wrap;html=1;" parent="WIyWlLk6GJQsqaUBKTNV-1" vertex="1">
          <mxGeometry x="3380" y="90" width="180" height="360" as="geometry" />
        </mxCell>
        <mxCell id="01RbV2M24BSQ1nTZ_oYk-3" value="&lt;p style=&quot;margin: 0cm; line-height: normal; font-size: 11pt; font-family: Calibri, sans-serif;&quot; class=&quot;MsoNormal&quot;&gt;&lt;/p&gt;&lt;font style=&quot;font-size: 14.6667px;&quot;&gt;&lt;font style=&quot;font-size: 14.6667px;&quot; face=&quot;Calibri, sans-serif&quot;&gt;add_layer_meta(&lt;/font&gt;&lt;span style=&quot;background-color: initial;&quot;&gt;&lt;/span&gt;&lt;font style=&quot;font-size: 14.6667px;&quot; face=&quot;Calibri, sans-serif&quot;&gt;&lt;br&gt;&lt;/font&gt;&lt;/font&gt;&lt;p style=&quot;border-color: var(--border-color); margin: 0cm 0cm 0cm 9pt; line-height: normal; font-size: 11pt; font-family: Calibri, sans-serif;&quot; class=&quot;MsoNormal&quot;&gt;layer,&lt;/p&gt;&lt;p style=&quot;border-color: var(--border-color); margin: 0cm 0cm 0cm 9pt; line-height: normal; font-size: 11pt; font-family: Calibri, sans-serif;&quot; class=&quot;MsoNormal&quot;&gt;&lt;span style=&quot;border-color: var(--border-color);&quot; lang=&quot;EN-US&quot;&gt;element,&lt;/span&gt;&lt;/p&gt;&lt;p style=&quot;border-color: var(--border-color); margin: 0cm 0cm 0cm 9pt; line-height: normal; font-size: 11pt; font-family: Calibri, sans-serif;&quot; class=&quot;MsoNormal&quot;&gt;&lt;span style=&quot;border-color: var(--border-color);&quot; lang=&quot;EN-US&quot;&gt;value&lt;/span&gt;&lt;/p&gt;&lt;p style=&quot;border-color: var(--border-color); margin: 0cm; line-height: normal; font-size: 11pt; font-family: Calibri, sans-serif;&quot; class=&quot;MsoNormal&quot;&gt;&lt;span style=&quot;border-color: var(--border-color);&quot; lang=&quot;EN-US&quot;&gt;&lt;span style=&quot;font-size: 11pt; background-color: initial;&quot;&gt;)&lt;/span&gt;&lt;/span&gt;&lt;/p&gt;&lt;p style=&quot;border-color: var(--border-color); margin: 0cm; line-height: normal; font-size: 11pt; font-family: Calibri, sans-serif;&quot; class=&quot;MsoNormal&quot;&gt;&lt;font style=&quot;border-color: var(--border-color); font-family: Helvetica; font-size: 14.6667px;&quot;&gt;&lt;font style=&quot;border-color: var(--border-color); font-size: 14.6667px;&quot; face=&quot;Calibri, sans-serif&quot;&gt;save_script(&lt;/font&gt;&lt;font style=&quot;border-color: var(--border-color); font-size: 14.6667px;&quot; face=&quot;Calibri, sans-serif&quot;&gt;&lt;br style=&quot;border-color: var(--border-color);&quot;&gt;&lt;/font&gt;&lt;/font&gt;&lt;span style=&quot;border-color: var(--border-color);&quot; lang=&quot;EN-US&quot;&gt;&lt;/span&gt;&lt;/p&gt;&lt;p style=&quot;border-color: var(--border-color); margin: 0cm 0cm 0cm 9pt; line-height: normal; font-size: 11pt; font-family: Calibri, sans-serif;&quot; class=&quot;MsoNormal&quot;&gt;scripts,&lt;/p&gt;&lt;p style=&quot;border-color: var(--border-color); margin: 0cm 0cm 0cm 9pt; line-height: normal; font-size: 11pt; font-family: Calibri, sans-serif;&quot; class=&quot;MsoNormal&quot;&gt;&lt;span style=&quot;border-color: var(--border-color);&quot; lang=&quot;EN-US&quot;&gt;script,&lt;/span&gt;&lt;/p&gt;&lt;p style=&quot;border-color: var(--border-color); margin: 0cm 0cm 0cm 9pt; line-height: normal; font-size: 11pt; font-family: Calibri, sans-serif;&quot; class=&quot;MsoNormal&quot;&gt;&lt;span style=&quot;border-color: var(--border-color);&quot; lang=&quot;EN-US&quot;&gt;container,&lt;/span&gt;&lt;/p&gt;&lt;p style=&quot;border-color: var(--border-color); margin: 0cm 0cm 0cm 9pt; line-height: normal; font-size: 11pt; font-family: Calibri, sans-serif;&quot; class=&quot;MsoNormal&quot;&gt;&lt;span style=&quot;border-color: var(--border-color);&quot; lang=&quot;EN-US&quot;&gt;path&lt;/span&gt;&lt;/p&gt;&lt;p style=&quot;border-color: var(--border-color); margin: 0cm; line-height: normal; font-size: 11pt; font-family: Calibri, sans-serif;&quot; class=&quot;MsoNormal&quot;&gt;&lt;span style=&quot;border-color: var(--border-color);&quot; lang=&quot;EN-US&quot;&gt;&lt;/span&gt;&lt;/p&gt;&lt;p style=&quot;border-color: var(--border-color); margin: 0cm; line-height: normal; font-size: 11pt; font-family: Calibri, sans-serif;&quot; class=&quot;MsoNormal&quot;&gt;&lt;span style=&quot;border-color: var(--border-color);&quot; lang=&quot;EN-US&quot;&gt;)&lt;/span&gt;&lt;/p&gt;&lt;p style=&quot;border-color: var(--border-color); margin: 0cm; line-height: normal; font-size: 11pt; font-family: Calibri, sans-serif;&quot; class=&quot;MsoNormal&quot;&gt;&lt;font style=&quot;border-color: var(--border-color); font-family: Helvetica; font-size: 14.6667px;&quot;&gt;&lt;font style=&quot;border-color: var(--border-color); font-size: 14.6667px;&quot; face=&quot;Calibri, sans-serif&quot;&gt;write_meta(&lt;/font&gt;&lt;font style=&quot;border-color: var(--border-color); font-size: 14.6667px;&quot; face=&quot;Calibri, sans-serif&quot;&gt;&lt;br style=&quot;border-color: var(--border-color);&quot;&gt;&lt;/font&gt;&lt;/font&gt;&lt;/p&gt;&lt;p style=&quot;border-color: var(--border-color); margin: 0cm 0cm 0cm 9pt; line-height: normal; font-size: 11pt; font-family: Calibri, sans-serif;&quot; class=&quot;MsoNormal&quot;&gt;scripts,&lt;/p&gt;&lt;p style=&quot;border-color: var(--border-color); margin: 0cm 0cm 0cm 9pt; line-height: normal; font-size: 11pt; font-family: Calibri, sans-serif;&quot; class=&quot;MsoNormal&quot;&gt;&lt;span style=&quot;border-color: var(--border-color);&quot; lang=&quot;EN-US&quot;&gt;layer_meta,&lt;/span&gt;&lt;/p&gt;&lt;p style=&quot;border-color: var(--border-color); margin: 0cm 0cm 0cm 9pt; line-height: normal; font-size: 11pt; font-family: Calibri, sans-serif;&quot; class=&quot;MsoNormal&quot;&gt;&lt;span style=&quot;border-color: var(--border-color);&quot; lang=&quot;EN-US&quot;&gt;tablename,&lt;/span&gt;&lt;/p&gt;&lt;p style=&quot;border-color: var(--border-color); margin: 0cm 0cm 0cm 9pt; line-height: normal; font-size: 11pt; font-family: Calibri, sans-serif;&quot; class=&quot;MsoNormal&quot;&gt;&lt;span style=&quot;border-color: var(--border-color);&quot; lang=&quot;EN-US&quot;&gt;path&lt;/span&gt;&lt;/p&gt;&lt;p style=&quot;border-color: var(--border-color); margin: 0cm; line-height: normal; font-size: 11pt; font-family: Calibri, sans-serif;&quot; class=&quot;MsoNormal&quot;&gt;&lt;span style=&quot;border-color: var(--border-color);&quot; lang=&quot;EN-US&quot;&gt;&lt;/span&gt;&lt;/p&gt;&lt;p style=&quot;border-color: var(--border-color); margin: 0cm; line-height: normal; font-size: 11pt; font-family: Calibri, sans-serif;&quot; class=&quot;MsoNormal&quot;&gt;&lt;span style=&quot;border-color: var(--border-color);&quot; lang=&quot;EN-US&quot;&gt;&lt;/span&gt;&lt;/p&gt;&lt;p style=&quot;border-color: var(--border-color); margin: 0cm; line-height: normal; font-size: 11pt; font-family: Calibri, sans-serif;&quot; class=&quot;MsoNormal&quot;&gt;&lt;span style=&quot;border-color: var(--border-color);&quot; lang=&quot;EN-US&quot;&gt;)&lt;/span&gt;&lt;/p&gt;" style="text;html=1;align=left;verticalAlign=middle;resizable=0;points=[];autosize=1;strokeColor=none;fillColor=none;" parent="01RbV2M24BSQ1nTZ_oYk-2" vertex="1">
          <mxGeometry x="20" y="35" width="120" height="320" as="geometry" />
        </mxCell>
        <mxCell id="01RbV2M24BSQ1nTZ_oYk-4" value="&lt;i style=&quot;border-color: var(--border-color);&quot;&gt;Update all metadata as needed and then write various flavors to the same working directory as the data. Also write the ETL scripts verbatim and a pseudocode version with credentials removed.&lt;/i&gt;" style="text;strokeColor=none;align=center;fillColor=none;html=1;verticalAlign=middle;whiteSpace=wrap;rounded=0;" parent="WIyWlLk6GJQsqaUBKTNV-1" vertex="1">
          <mxGeometry x="3380" y="490" width="180" height="110" as="geometry" />
        </mxCell>
        <mxCell id="01RbV2M24BSQ1nTZ_oYk-5" value="&lt;b style=&quot;border-color: var(--border-color); font-family: Calibri, sans-serif; font-size: 14.6667px; text-align: start;&quot;&gt;&lt;span style=&quot;background-color: rgb(255, 255, 204);&quot;&gt;Run scripts&lt;/span&gt;&lt;br&gt;&lt;/b&gt;" style="swimlane;whiteSpace=wrap;html=1;" parent="WIyWlLk6GJQsqaUBKTNV-1" vertex="1">
          <mxGeometry x="3590" y="90" width="180" height="180" as="geometry" />
        </mxCell>
        <mxCell id="01RbV2M24BSQ1nTZ_oYk-6" value="&lt;p style=&quot;margin: 0cm; line-height: normal; font-size: 11pt; font-family: Calibri, sans-serif;&quot; class=&quot;MsoNormal&quot;&gt;&lt;/p&gt;&lt;font style=&quot;font-size: 14.6667px;&quot;&gt;&lt;font style=&quot;font-size: 14.6667px;&quot; face=&quot;Calibri, sans-serif&quot;&gt;pod_exec(&lt;/font&gt;&lt;span style=&quot;background-color: initial;&quot;&gt;&lt;/span&gt;&lt;font style=&quot;font-size: 14.6667px;&quot; face=&quot;Calibri, sans-serif&quot;&gt;&lt;br&gt;&lt;/font&gt;&lt;/font&gt;&lt;p style=&quot;border-color: var(--border-color); margin: 0cm 0cm 0cm 9pt; line-height: normal; font-size: 11pt; font-family: Calibri, sans-serif;&quot; class=&quot;MsoNormal&quot;&gt;pod,&lt;/p&gt;&lt;p style=&quot;border-color: var(--border-color); margin: 0cm 0cm 0cm 9pt; line-height: normal; font-size: 11pt; font-family: Calibri, sans-serif;&quot; class=&quot;MsoNormal&quot;&gt;&lt;span style=&quot;border-color: var(--border-color);&quot; lang=&quot;EN-US&quot;&gt;container,&lt;/span&gt;&lt;/p&gt;&lt;p style=&quot;border-color: var(--border-color); margin: 0cm 0cm 0cm 9pt; line-height: normal; font-size: 11pt; font-family: Calibri, sans-serif;&quot; class=&quot;MsoNormal&quot;&gt;&lt;span style=&quot;border-color: var(--border-color);&quot; lang=&quot;EN-US&quot;&gt;command,&lt;/span&gt;&lt;/p&gt;&lt;p style=&quot;border-color: var(--border-color); margin: 0cm 0cm 0cm 9pt; line-height: normal; font-size: 11pt; font-family: Calibri, sans-serif;&quot; class=&quot;MsoNormal&quot;&gt;&lt;span style=&quot;border-color: var(--border-color);&quot; lang=&quot;EN-US&quot;&gt;api,&lt;/span&gt;&lt;/p&gt;&lt;p style=&quot;border-color: var(--border-color); margin: 0cm 0cm 0cm 9pt; line-height: normal; font-size: 11pt; font-family: Calibri, sans-serif;&quot; class=&quot;MsoNormal&quot;&gt;pg&lt;/p&gt;&lt;p style=&quot;border-color: var(--border-color); margin: 0cm; line-height: normal; font-size: 11pt; font-family: Calibri, sans-serif;&quot; class=&quot;MsoNormal&quot;&gt;&lt;span style=&quot;border-color: var(--border-color);&quot; lang=&quot;EN-US&quot;&gt;&lt;span style=&quot;font-size: 11pt; background-color: initial;&quot;&gt;)&lt;/span&gt;&lt;/span&gt;&lt;/p&gt;" style="text;html=1;align=left;verticalAlign=middle;resizable=0;points=[];autosize=1;strokeColor=none;fillColor=none;" parent="01RbV2M24BSQ1nTZ_oYk-5" vertex="1">
          <mxGeometry x="20" y="35" width="100" height="140" as="geometry" />
        </mxCell>
        <mxCell id="01RbV2M24BSQ1nTZ_oYk-7" value="&lt;i style=&quot;border-color: var(--border-color);&quot;&gt;Run scripts on respective ETL pods: osgeo/gdal for all basic geospatial transform functions and postGIS for all basic load functions.&lt;/i&gt;" style="text;strokeColor=none;align=center;fillColor=none;html=1;verticalAlign=middle;whiteSpace=wrap;rounded=0;" parent="WIyWlLk6GJQsqaUBKTNV-1" vertex="1">
          <mxGeometry x="3590" y="490" width="180" height="80" as="geometry" />
        </mxCell>
        <mxCell id="01RbV2M24BSQ1nTZ_oYk-8" value="&lt;b style=&quot;border-color: var(--border-color); font-family: Calibri, sans-serif; font-size: 14.6667px; text-align: start;&quot;&gt;&lt;span style=&quot;background-color: rgb(255, 255, 204);&quot;&gt;Proxy and index&lt;/span&gt;&lt;br&gt;&lt;/b&gt;" style="swimlane;whiteSpace=wrap;html=1;" parent="WIyWlLk6GJQsqaUBKTNV-1" vertex="1">
          <mxGeometry x="3800" y="90" width="180" height="310" as="geometry" />
        </mxCell>
        <mxCell id="01RbV2M24BSQ1nTZ_oYk-9" value="&lt;p style=&quot;margin: 0cm; line-height: normal; font-size: 11pt; font-family: Calibri, sans-serif;&quot; class=&quot;MsoNormal&quot;&gt;&lt;/p&gt;&lt;font style=&quot;font-size: 14.6667px;&quot;&gt;&lt;font style=&quot;font-size: 14.6667px;&quot; face=&quot;Calibri, sans-serif&quot;&gt;proxy(&lt;/font&gt;&lt;span style=&quot;background-color: initial;&quot;&gt;&lt;/span&gt;&lt;font style=&quot;font-size: 14.6667px;&quot; face=&quot;Calibri, sans-serif&quot;&gt;&lt;br&gt;&lt;/font&gt;&lt;/font&gt;&lt;p style=&quot;border-color: var(--border-color); margin: 0cm 0cm 0cm 9pt; line-height: normal; font-size: 11pt; font-family: Calibri, sans-serif;&quot; class=&quot;MsoNormal&quot;&gt;pod,&lt;/p&gt;&lt;p style=&quot;border-color: var(--border-color); margin: 0cm 0cm 0cm 9pt; line-height: normal; font-size: 11pt; font-family: Calibri, sans-serif;&quot; class=&quot;MsoNormal&quot;&gt;&lt;span style=&quot;border-color: var(--border-color);&quot; lang=&quot;EN-US&quot;&gt;pods,&lt;/span&gt;&lt;/p&gt;&lt;p style=&quot;border-color: var(--border-color); margin: 0cm 0cm 0cm 9pt; line-height: normal; font-size: 11pt; font-family: Calibri, sans-serif;&quot; class=&quot;MsoNormal&quot;&gt;&lt;span style=&quot;border-color: var(--border-color);&quot; lang=&quot;EN-US&quot;&gt;meta,&lt;/span&gt;&lt;/p&gt;&lt;p style=&quot;border-color: var(--border-color); margin: 0cm 0cm 0cm 9pt; line-height: normal; font-size: 11pt; font-family: Calibri, sans-serif;&quot; class=&quot;MsoNormal&quot;&gt;&lt;span style=&quot;border-color: var(--border-color);&quot; lang=&quot;EN-US&quot;&gt;api,&lt;/span&gt;&lt;/p&gt;&lt;p style=&quot;border-color: var(--border-color); margin: 0cm 0cm 0cm 9pt; line-height: normal; font-size: 11pt; font-family: Calibri, sans-serif;&quot; class=&quot;MsoNormal&quot;&gt;pg,&lt;/p&gt;&lt;p style=&quot;border-color: var(--border-color); margin: 0cm 0cm 0cm 9pt; line-height: normal; font-size: 11pt; font-family: Calibri, sans-serif;&quot; class=&quot;MsoNormal&quot;&gt;indent = &#39;&#39;&lt;/p&gt;&lt;p style=&quot;border-color: var(--border-color); margin: 0cm; line-height: normal; font-size: 11pt; font-family: Calibri, sans-serif;&quot; class=&quot;MsoNormal&quot;&gt;&lt;span style=&quot;border-color: var(--border-color);&quot; lang=&quot;EN-US&quot;&gt;&lt;span style=&quot;font-size: 11pt; background-color: initial;&quot;&gt;)&lt;/span&gt;&lt;/span&gt;&lt;/p&gt;&lt;p style=&quot;border-color: var(--border-color); margin: 0cm; line-height: normal; font-size: 11pt; font-family: Calibri, sans-serif;&quot; class=&quot;MsoNormal&quot;&gt;&lt;font style=&quot;border-color: var(--border-color); font-family: Helvetica; font-size: 14.6667px;&quot;&gt;&lt;font style=&quot;border-color: var(--border-color); font-size: 14.6667px;&quot; face=&quot;Calibri, sans-serif&quot;&gt;rebuild_solr_index(&lt;/font&gt;&lt;font style=&quot;border-color: var(--border-color); font-size: 14.6667px;&quot; face=&quot;Calibri, sans-serif&quot;&gt;&lt;br style=&quot;border-color: var(--border-color);&quot;&gt;&lt;/font&gt;&lt;/font&gt;&lt;span style=&quot;border-color: var(--border-color);&quot; lang=&quot;EN-US&quot;&gt;&lt;/span&gt;&lt;/p&gt;&lt;p style=&quot;border-color: var(--border-color); margin: 0cm 0cm 0cm 9pt; line-height: normal; font-size: 11pt; font-family: Calibri, sans-serif;&quot; class=&quot;MsoNormal&quot;&gt;&lt;span style=&quot;font-size: 11pt; background-color: initial;&quot;&gt;api,&lt;/span&gt;&lt;br&gt;&lt;/p&gt;&lt;p style=&quot;border-color: var(--border-color); margin: 0cm 0cm 0cm 9pt; line-height: normal; font-size: 11pt; font-family: Calibri, sans-serif;&quot; class=&quot;MsoNormal&quot;&gt;pg,&lt;/p&gt;&lt;p style=&quot;border-color: var(--border-color); margin: 0cm 0cm 0cm 9pt; line-height: normal; font-size: 11pt; font-family: Calibri, sans-serif;&quot; class=&quot;MsoNormal&quot;&gt;falvor,&lt;/p&gt;&lt;p style=&quot;border-color: var(--border-color); margin: 0cm 0cm 0cm 9pt; line-height: normal; font-size: 11pt; font-family: Calibri, sans-serif;&quot; class=&quot;MsoNormal&quot;&gt;pods = {}&lt;/p&gt;&lt;p style=&quot;border-color: var(--border-color); margin: 0cm; line-height: normal; font-size: 11pt; font-family: Calibri, sans-serif;&quot; class=&quot;MsoNormal&quot;&gt;&lt;span style=&quot;border-color: var(--border-color);&quot; lang=&quot;EN-US&quot;&gt;&lt;/span&gt;&lt;/p&gt;&lt;p style=&quot;border-color: var(--border-color); margin: 0cm; line-height: normal; font-size: 11pt; font-family: Calibri, sans-serif;&quot; class=&quot;MsoNormal&quot;&gt;&lt;span style=&quot;border-color: var(--border-color);&quot; lang=&quot;EN-US&quot;&gt;)&lt;/span&gt;&lt;/p&gt;" style="text;html=1;align=left;verticalAlign=middle;resizable=0;points=[];autosize=1;strokeColor=none;fillColor=none;" parent="01RbV2M24BSQ1nTZ_oYk-8" vertex="1">
          <mxGeometry x="20" y="35" width="140" height="270" as="geometry" />
        </mxCell>
        <mxCell id="01RbV2M24BSQ1nTZ_oYk-10" value="&lt;i&gt;Load specific postGIS pod as foreign table into proxy postGIS server and create public view. Then re-index all metadata documents in the SOLR datastore.&lt;/i&gt;" style="text;strokeColor=none;align=center;fillColor=none;html=1;verticalAlign=middle;whiteSpace=wrap;rounded=0;" parent="WIyWlLk6GJQsqaUBKTNV-1" vertex="1">
          <mxGeometry x="3800" y="490" width="180" height="100" as="geometry" />
        </mxCell>
        <mxCell id="2MiYju6kacZb1B10Wtue-0" value="&lt;b style=&quot;border-color: var(--border-color); font-family: Calibri, sans-serif; font-size: 14.6667px; text-align: start;&quot;&gt;&lt;span style=&quot;background-color: rgb(230, 255, 204);&quot;&gt;Raster tiles&lt;/span&gt;&lt;br&gt;&lt;/b&gt;" style="swimlane;whiteSpace=wrap;html=1;" parent="WIyWlLk6GJQsqaUBKTNV-1" vertex="1">
          <mxGeometry x="1570" y="540" width="170" height="140" as="geometry" />
        </mxCell>
        <mxCell id="2MiYju6kacZb1B10Wtue-1" value="&lt;p style=&quot;margin: 0cm; line-height: normal; font-size: 11pt; font-family: Calibri, sans-serif;&quot; class=&quot;MsoNormal&quot;&gt;&lt;span style=&quot;background-color: rgb(255, 244, 94);&quot;&gt;tbd&lt;/span&gt;&lt;/p&gt;" style="text;html=1;align=left;verticalAlign=middle;resizable=0;points=[];autosize=1;strokeColor=none;fillColor=none;" parent="2MiYju6kacZb1B10Wtue-0" vertex="1">
          <mxGeometry x="20" y="70" width="40" height="30" as="geometry" />
        </mxCell>
      </root>
    </mxGraphModel>
  </diagram>
</mxfile>
